<?xml version="1.0" encoding="UTF-8" standalone="no"?>
<svg
   xmlns:dc="http://purl.org/dc/elements/1.1/"
   xmlns:cc="http://creativecommons.org/ns#"
   xmlns:rdf="http://www.w3.org/1999/02/22-rdf-syntax-ns#"
   xmlns:svg="http://www.w3.org/2000/svg"
   xmlns="http://www.w3.org/2000/svg"
   xmlns:sodipodi="http://sodipodi.sourceforge.net/DTD/sodipodi-0.dtd"
   xmlns:inkscape="http://www.inkscape.org/namespaces/inkscape"
   version="1.1"
   id="svg2"
   xml:space="preserve"
   width="4266.6665"
   height="2666.6667"
   viewBox="0 0 4266.6665 2666.6667"
   sodipodi:docname="6660.eps"><metadata
     id="metadata8"><rdf:RDF><cc:Work
         rdf:about=""><dc:format>image/svg+xml</dc:format><dc:type
           rdf:resource="http://purl.org/dc/dcmitype/StillImage" /></cc:Work></rdf:RDF></metadata><defs
     id="defs6"><clipPath
       clipPathUnits="userSpaceOnUse"
       id="clipPath478"><path
         d="m 10017.4,6074.6 -42.88,35 c -35.79,29.2 -41.18,82.4 -11.97,118.2 l 230.55,282.6 c 30,36.7 74,55.8 118.2,55.8 13.7,0 27.3,-1.8 40.6,-5.5 1.6,-0.4 3.2,-0.6 4.9,-0.6 5.8,0 11.5,2.8 14.6,8 1.2,1.9 2.5,3.7 3.9,5.5 l 12.4,15.1 87.1,-71.1 -43.6,35.5 -12.3,-15.1 c -1.5,-1.7 -2.7,-3.6 -3.9,-5.5 -2.6,-4.1 -6.7,-6.8 -11.3,-7.7 -1.1,-0.2 -2.3,-0.3 -3.4,-0.3 -1.6,0 -3.2,0.2 -4.8,0.7 -13.3,3.6 -27,5.4 -40.6,5.4 -44.3,0 -88.2,-19 -118.2,-55.8 l -110.1,-134.9 c -18.4,-4.7 -29.5,-9.3 -29.5,-9.3 0,0 -6.5,-12.4 -1.4,-28.5 l -89.6,-109.8 c -12.66,-15.5 -18.83,-34.3 -18.82,-53 0,-24.2 10.29,-48.2 30.12,-64.7"
         id="path476" /></clipPath></defs><sodipodi:namedview
     pagecolor="#ffffff"
     bordercolor="#666666"
     borderopacity="1"
     objecttolerance="10"
     gridtolerance="10"
     guidetolerance="10"
     inkscape:pageopacity="0"
     inkscape:pageshadow="2"
     inkscape:window-width="640"
     inkscape:window-height="480"
     id="namedview4" /><g
     id="g10"
     inkscape:groupmode="layer"
     inkscape:label="ink_ext_XXXXXX"
     transform="matrix(1.3333333,0,0,-1.3333333,0,2666.6667)"><g
       id="g12"
       transform="scale(0.1)"><path
         d="M 0,0 H 32000 V 20000 H 0 Z"
         style="fill:#ffffff;fill-opacity:1;fill-rule:nonzero;stroke:none"
         id="path14" /><path
         d="m 4525.08,2261.4 c 0,0 -2688.51,4292 -679.4,8542.4 1890.64,3999.7 5043.7,1881.6 8569.72,5058.6 5353.2,4823.2 15973.6,2080.5 13778.5,-4579.3 C 25056.1,7831.3 30836.5,5763.6 28902.4,2254 l -24377.32,7.4"
         style="fill:#ebf3fa;fill-opacity:1;fill-rule:nonzero;stroke:none"
         id="path16" /><path
         d="m 23254.4,8029.3 h -3097.1 c -41,0 -74.6,33.6 -74.6,74.6 v 237.8 c 0,41 33.6,74.5 74.6,74.5 h 3097.1 c 41,0 74.6,-33.5 74.6,-74.5 v -237.8 c 0,-41 -33.6,-74.6 -74.6,-74.6"
         style="fill:#d9e7fc;fill-opacity:1;fill-rule:nonzero;stroke:none"
         id="path18" /><path
         d="m 20869.4,8029.3 -38.6,-226.3 -558.2,-3277.3 c -1.6,-11.4 -14.2,-20.1 -29.2,-20.1 -28.6,0 -51,19.1 -47.9,41 l 442.7,3356 16.8,126.7 h 214.4"
         style="fill:#d9e7fc;fill-opacity:1;fill-rule:nonzero;stroke:none"
         id="path20" /><path
         d="m 20869.4,8029.3 -38.6,-226.3 c -26.4,90.1 -192.6,99.6 -192.6,99.6 l 16.8,126.7 h 214.4"
         style="fill:#bfd3ef;fill-opacity:1;fill-rule:nonzero;stroke:none"
         id="path22" /><path
         d="m 23168.3,2245.5 c -15,0 -27.6,14.2 -29.2,33 l -558.3,5379.3 -24,231.8 -14.5,139.7 h 214.4 l 16.8,-208 13.1,-163.3 429.6,-5345.3 c 3.1,-35.9 -19.3,-67.2 -47.9,-67.2"
         style="fill:#d9e7fc;fill-opacity:1;fill-rule:nonzero;stroke:none"
         id="path24" /><path
         d="m 22786.6,7658 c -54.6,177.1 -229.7,231.4 -229.7,231.4 l -0.1,0.2 -14.5,139.7 h 214.4 l 16.8,-208 13.1,-163.3"
         style="fill:#bfd3ef;fill-opacity:1;fill-rule:nonzero;stroke:none"
         id="path26" /><path
         d="m 20949.6,10404.9 c -27.6,56.3 -56.1,111.9 -85.6,167.2 443.9,521 1190.9,1270.5 2059.4,1623.4 27.7,11.3 55.4,16.5 81.9,16.5 152,0 269.4,-168.5 187.7,-319.4 -1.6,-3 -3.2,-5.9 -4.9,-8.9 -140.7,-250.1 -1308.8,-836.3 -2238.5,-1478.8"
         style="fill:#e5effc;fill-opacity:1;fill-rule:nonzero;stroke:none"
         id="path28" /><path
         d="m 21135.8,9982.6 c -37.6,95.6 -77.6,189.9 -120.1,282.9 761.7,491.2 1888.8,1083.1 3017.5,1184.5 7.1,0.7 14.1,1 21,1 112.7,0 213.6,-81.6 228,-195.1 10,-78.4 -18.7,-178.1 -136.1,-296.5 -243.3,-245.1 -1697.9,-547.5 -3010.3,-976.8"
         style="fill:#e5effc;fill-opacity:1;fill-rule:nonzero;stroke:none"
         id="path30" /><path
         d="m 13367.4,12313 c 0,0 -767.6,897.8 -875,1814 -14.3,121.8 132.8,194.1 221.2,109.1 1.5,-1.4 3,-2.9 4.5,-4.3 148.6,-147.5 341.5,-1240.4 649.3,-1918.8"
         style="fill:#dfebfd;fill-opacity:1;fill-rule:nonzero;stroke:none"
         id="path32" /><path
         d="m 13564.8,12031.8 c 0,0 -672.2,1433.8 -455.7,2625.3 13.2,72.7 80.9,125.1 154,114.6 47.6,-6.9 101.5,-39.8 151.9,-127.8 134.3,-234.7 -0.5,-1661.7 149.8,-2612.1"
         style="fill:#dfebfd;fill-opacity:1;fill-rule:nonzero;stroke:none"
         id="path34" /><path
         d="m 16837.7,15835.4 c -339,367.8 -991.9,-142.5 -991.9,-142.5 0,0 -100.2,-1005 -233.6,-1097.2 -133.5,-92.2 -82.1,876 -82.1,876 -290.5,-117.3 -818.6,-823.5 -818.6,-823.5 0,0 500.1,-851 348,-907.5 -152,-56.6 -404.3,776.1 -404.3,776.1 -225.8,-219.8 -312.9,-662.1 -312.9,-662.1 -47.3,-671.2 817,-697.3 817,-697.3 0,0 166.9,-298.6 160.8,-744.1 v -0.1 c 0,0 -8.8,-86.2 5.1,-217.8 l 73,38 c -4.2,22.7 -7.5,45 -9.7,67 v 0.4 l -0.1,0.9 c -0.9,13.9 -2.1,33.7 -3.3,57.9 v 0.1 0.1 c -0.5,55.2 -2.2,95.3 -4.8,123.6 v 0.2 c -4.6,171.8 -1.4,400.4 43.3,471.3 0,0 -14,7.1 -33.1,25.3 10.6,-8.1 21.6,-16.5 33.1,-25.3 264.3,-202.6 912,78.2 1222.7,330.8 310.8,252.7 108,271.8 -162.3,333.4 -270.4,61.7 -641,-184.8 -789.5,-182.8 -148.5,2 -11.6,152.8 229.7,255.8 241.2,103 478,-68.5 871.3,91 393.3,159.6 311.5,1013 311.5,1013 -216.8,-215 -755.1,-314 -819.4,-234.1 -64.3,79.9 627.2,428.9 720.3,511.4 93.1,82.6 168.9,394.3 -170.2,762"
         style="fill:#dfebfd;fill-opacity:1;fill-rule:nonzero;stroke:none"
         id="path36" /><path
         d="m 20645.6,15336.2 c -501.4,543.8 -1466.7,-210.8 -1466.7,-210.8 0,0 -148.2,-1486.1 -345.5,-1622.4 -197.3,-136.4 -121.4,1295.3 -121.4,1295.3 -429.6,-173.5 -1210.5,-1217.8 -1210.5,-1217.8 0,0 739.5,-1258.3 514.7,-1341.9 -224.8,-83.6 -597.9,1147.6 -597.9,1147.6 -333.9,-324.9 -462.7,-979 -462.7,-979 -69.9,-992.5 1208.1,-1031 1208.1,-1031 0,0 246.9,-441.6 237.9,-1100.4 v 0 c 0,0 -13,-127.6 7.5,-322.2 l 107.9,56.3 c -6.2,33.5 -11.1,66.5 -14.3,99 l -0.1,0.5 -0.1,1.5 c -1.3,20.5 -3,49.7 -4.9,85.5 v 0.2 0.2 c -0.6,81.6 -3.2,140.9 -7,182.7 l -0.1,0.3 c -6.8,254.1 -2,592.1 64,696.9 0,0 -20.6,10.6 -48.8,37.4 15.6,-11.9 31.8,-24.4 48.8,-37.4 390.9,-299.5 1348.6,115.6 1808.1,489.2 459.5,373.6 159.6,401.8 -240.1,493 -399.7,91.2 -947.8,-273.3 -1167.4,-270.3 -219.6,3 -17,225.9 339.7,378.2 356.7,152.3 706.9,-101.3 1288.4,134.6 581.5,235.9 460.6,1497.9 460.6,1497.9 -320.6,-318 -1116.5,-464.3 -1211.7,-346.2 -95.1,118.2 927.5,634.2 1065.2,756.3 137.7,122 249.7,582.9 -251.7,1126.8"
         style="fill:#dfebfd;fill-opacity:1;fill-rule:nonzero;stroke:none"
         id="path38" /><path
         d="m 6488.98,11395.7 c -0.81,827.9 1365.91,940.7 1365.91,940.7 0,0 1250.41,-1109.2 1516.17,-1071.5 265.77,37.8 -883.89,1157.1 -883.89,1157.1 484.89,183.6 1919.93,-81.8 1919.93,-81.8 0,0 347.7,-1596.1 596,-1494.1 248.3,102 -380,1397.6 -380,1397.6 521.2,-13.6 1123.9,-453.5 1123.9,-453.5 811.2,-762.8 -210.2,-1765.1 -210.2,-1765.1 0,0 132.5,-550.5 640.1,-1085.3 h 0.1 c 0,0 107.6,-95 238.4,-270.6 l -131.4,-35.7 c -20.3,32.3 -41.4,63.1 -63.4,92.3 l -0.4,0.5 -0.9,1.3 c -14.6,17.8 -35.4,43.2 -61,74 l -0.1,0.1 -0.2,0.2 c -61.5,67.6 -104.4,118.3 -132.9,155.5 l -0.3,0.4 c -187.3,214 -447.9,488.2 -581.8,524.2 0,0 8.9,24.4 11.7,67.9 -3.7,-21.6 -7.6,-44.2 -11.7,-67.9 -93.9,-543 -1196.6,-929.1 -1858.01,-970.9 -661.45,-41.8 -436.4,209.1 -177.02,587.6 259.37,378.5 986.73,495.1 1165.03,664.3 178.2,169.3 -157.5,198.7 -566.5,53 -408.92,-145.6 -504.2,-620.1 -1161.42,-867.8 -657.23,-247.7 -1516.33,881.6 -1516.33,881.6 505.18,-17.9 1270.63,466.3 1259.09,635.6 -11.55,169.4 -1244.13,-183 -1450,-187.2 -205.87,-4.2 -648.05,289.6 -648.86,1117.5"
         style="fill:#dfebfd;fill-opacity:1;fill-rule:nonzero;stroke:none"
         id="path40" /><path
         d="m 21522.7,7927.6 c 0,-346.1 -31.2,-685 -91.1,-1013.9 -477.4,-2624.4 -2774.7,-4614.2 -5536.9,-4614.2 -2297.4,0 -4273.2,1376.3 -5147.8,3349.4 -115.3,260 -211.5,530.5 -286.7,809.5 -126.4,468.3 -193.8,960.9 -193.8,1469.2 0,415.7 45.1,820.8 130.6,1210.7 233.9,1066.7 770.2,2020 1514.7,2765.7 211.1,211.6 439.2,406.5 681.9,582.5 927.3,672.7 2067.8,1069.3 3301.1,1069.3 143.1,0 285,-5.3 425.3,-15.9 198.1,-14.9 393.2,-39.9 585,-74.6 1310.1,-237.4 2462.4,-928.5 3288.2,-1904.5 166.5,-196.8 319.8,-405.2 458.3,-623.9 551.8,-870.4 871.2,-1902.6 871.2,-3009.3"
         style="fill:#699ff0;fill-opacity:1;fill-rule:nonzero;stroke:none"
         id="path42" /><path
         d="m 21522.7,7927.6 c 0,-346.1 -31.2,-685 -91.2,-1013.9 -61.9,-340.2 -154.3,-669.7 -274.5,-985.7 -806.3,-2121.2 -2858.2,-3628.6 -5262.4,-3628.6 -958.3,0 -1860.7,239.5 -2650.5,661.9 -72.7,39 -144.4,79.3 -215.3,121.3 -683.8,405.3 -1274.6,951.4 -1732,1598.3 -213.7,302.1 -398.4,626 -549.9,968 -115.4,260 -211.5,530.5 -286.7,809.5 635.7,-152 1639.4,-314.6 2842.4,-238.1 209,13.2 423.9,33.6 644,62.7 774.9,102 1613.5,309.7 2477,680 2048.1,878.3 3426.1,2636.7 4227.8,3973.9 551.8,-870.4 871.3,-1902.6 871.3,-3009.3"
         style="fill:#4888e5;fill-opacity:1;fill-rule:nonzero;stroke:none"
         id="path44" /><path
         d="m 21522.7,7927.6 c 0,-346.1 -31.2,-685 -91.1,-1013.9 -229.1,33.2 -527.4,65.6 -711.6,44 -331.7,-39.1 -663.5,-722.1 -1346.6,-749 -683.1,-26.8 -1522.3,495.3 -2420,144 -897.8,-351.3 -1366.2,19.5 -1522.3,273.2 -156.1,253.7 390.3,839.2 340.9,1092.9 -49.6,253.7 69,1112.4 830.1,1112.4 761.1,0 1076.3,416 1210,566 383.4,429.9 683.1,39 995.3,370.8 312.3,331.8 -234.2,917.3 0,1307.6 234.2,390.3 1385.8,485.2 1385.8,485.2 829.4,-980.4 1329.5,-2248.4 1329.5,-3633.2"
         style="fill:#a8d29f;fill-opacity:1;fill-rule:nonzero;stroke:none"
         id="path46" /><path
         d="m 13225.8,8884.2 c -273.2,-384.8 97.6,-1184.9 -136.6,-1594.8 -234.2,-409.8 -683.1,-331.7 -1014.9,-526.9 -288,-169.4 -403.5,-868.4 -1327.4,-1113.6 -308.9,696.5 -480.5,1467.6 -480.5,2278.7 0,415.7 45.1,820.8 130.6,1210.7 188.5,190.4 446.8,361.4 799.1,454.1 1112.4,292.7 1140,1111.5 1589.1,1127.1 1093.3,38 713.8,-1450.4 440.6,-1835.3"
         style="fill:#a8d29f;fill-opacity:1;fill-rule:nonzero;stroke:none"
         id="path48" /><path
         d="m 17421.8,11007.3 c 0,0 -683.1,136.6 -1053.9,-97.6 -370.8,-234.2 -1122.2,-653.8 -1024.6,-897.8 97.6,-243.9 809.9,-429.3 1102.7,-419.5 292.7,9.7 93.4,588.5 1512.5,419.5 359.7,-42.8 364.8,747.8 -536.7,995.4"
         style="fill:#a8d29f;fill-opacity:1;fill-rule:nonzero;stroke:none"
         id="path50" /><path
         d="m 16905,13465.3 c -346.1,-605.8 -979.4,-1373 -2049,-1650.2 -1290.6,-334.3 -2388.3,-92.8 -2944.3,88.9 211.1,211.6 439.2,406.5 681.9,582.5 927.3,672.7 2067.8,1069.3 3301.1,1069.3 143.1,0 285,-5.3 425.3,-15.9 198.1,-14.9 393.2,-39.9 585,-74.6"
         style="fill:#7db2ff;fill-opacity:1;fill-rule:nonzero;stroke:none"
         id="path52" /><path
         d="m 21157,5928 c -806.3,-2121.2 -2858.2,-3628.6 -5262.4,-3628.6 -958.3,0 -1860.7,239.5 -2650.5,661.9 -72.7,39 -144.4,79.3 -215.3,121.3 1452.8,106 5077.7,602.3 8128.2,2845.4"
         style="fill:#3b7fd1;fill-opacity:1;fill-rule:nonzero;stroke:none"
         id="path54" /><path
         d="m 14171.3,4310.4 c -298.6,-217.8 -369.7,-887.1 -560.7,-979.8 -95.9,-46.5 -243.4,-214.1 -366.4,-369.2 -775.5,414.6 -1442.6,1005.7 -1947.3,1719.6 337.8,234.5 971.3,630.5 1410.8,641.3 0,0 219.6,2.6 382.4,448.8 64.2,175.8 133,331.8 212.6,449.2 122.5,180.6 270.6,269.9 467,199.5 84.3,-30.2 137.2,-77.3 177,-136.8 113.6,-169.2 120.7,-438.1 440.9,-697.3 432.5,-350.1 82.4,-1057.5 -216.3,-1275.3"
         style="fill:#a8d29f;fill-opacity:1;fill-rule:nonzero;stroke:none"
         id="path56" /><path
         d="m 18443.1,11872.9 c 0,0 -58.8,1057.8 -1360,1241.8 0,0 -48,-1241.8 1360,-1241.8"
         style="fill:#a8d29f;fill-opacity:1;fill-rule:nonzero;stroke:none"
         id="path58" /><path
         d="m 18384.3,11880.2 c 0,0 1043.5,-197.2 1465.8,1047.3 0,0 -1204.3,336.2 -1465.8,-1047.3"
         style="fill:#a8d29f;fill-opacity:1;fill-rule:nonzero;stroke:none"
         id="path60" /><path
         d="m 18398.7,12321.5 c 0,0 463,374.8 83.9,1007.1 0,0 -580.9,-393.2 -83.9,-1007.1"
         style="fill:#a8d29f;fill-opacity:1;fill-rule:nonzero;stroke:none"
         id="path62" /><path
         d="m 18384.3,11880.2 c 0,0 -156.4,-678.5 -129.2,-917.7 h 129.2 c 0,0 -49.8,631.6 72.8,950.4 l -72.8,-32.7"
         style="fill:#a8d29f;fill-opacity:1;fill-rule:nonzero;stroke:none"
         id="path64" /><path
         d="m 19825.1,10216.2 c 0,0 -27.8,500.5 -643.5,587.6 0,0 -22.8,-587.6 643.5,-587.6"
         style="fill:#82b378;fill-opacity:1;fill-rule:nonzero;stroke:none"
         id="path66" /><path
         d="m 19797.3,10219.6 c 0,0 493.7,-93.3 693.6,495.6 0,0 -569.9,159.1 -693.6,-495.6"
         style="fill:#82b378;fill-opacity:1;fill-rule:nonzero;stroke:none"
         id="path68" /><path
         d="m 19804.1,10428.4 c 0,0 219.1,177.4 39.7,476.6 0,0 -274.9,-186.1 -39.7,-476.6"
         style="fill:#82b378;fill-opacity:1;fill-rule:nonzero;stroke:none"
         id="path70" /><path
         d="m 19797.3,10219.6 c 0,0 -74,-321.1 -61.2,-434.2 h 61.2 c 0,0 -23.6,298.8 34.4,449.7 l -34.4,-15.5"
         style="fill:#82b378;fill-opacity:1;fill-rule:nonzero;stroke:none"
         id="path72" /><path
         d="m 17681.7,11414.8 c 0,0 -17.5,314.3 -404.1,368.9 0,0 -14.3,-368.9 404.1,-368.9"
         style="fill:#a8d29f;fill-opacity:1;fill-rule:nonzero;stroke:none"
         id="path74" /><path
         d="m 17664.2,11416.9 c 0,0 310.1,-58.6 435.5,311.2 0,0 -357.8,99.9 -435.5,-311.2"
         style="fill:#a8d29f;fill-opacity:1;fill-rule:nonzero;stroke:none"
         id="path76" /><path
         d="m 17668.5,11548 c 0,0 137.6,111.4 24.9,299.3 0,0 -172.6,-116.9 -24.9,-299.3"
         style="fill:#a8d29f;fill-opacity:1;fill-rule:nonzero;stroke:none"
         id="path78" /><path
         d="m 17664.2,11416.9 c 0,0 -46.4,-201.6 -38.4,-272.6 h 38.4 c 0,0 -14.8,187.6 21.6,282.3 l -21.6,-9.7"
         style="fill:#a8d29f;fill-opacity:1;fill-rule:nonzero;stroke:none"
         id="path80" /><path
         d="m 20753.2,12138.5 c 0,0 -100.2,19.5 -123.1,0 -22.9,-19.6 -131.6,-129.9 -108.3,-166.2 23.2,-36.2 134.8,30 158,36.3 23.2,6.2 88,31.5 88,31.5 l -14.6,98.4"
         style="fill:#ffb27d;fill-opacity:1;fill-rule:nonzero;stroke:none"
         id="path82" /><path
         d="m 21817.7,8596.5 107.4,-40 c 0,0 466.5,647 523.9,1216.2 10.3,101.6 6.9,200.1 -15.3,291 0,0 4.6,26.1 12.5,72.1 3.7,21.5 8.3,47.3 13.4,77 15.2,86.9 36.1,205.8 59.9,341.1 54.9,311.5 126,709.8 181.3,1002.5 l -29,9.3 -313.1,101 -64.7,205.6 -233.1,61.3 c 0,0 -52.1,-101.8 -98.7,-583.1 -8.5,-63.1 -16.4,-132.8 -22.2,-208.2 -18.2,-230.5 -19.5,-516.3 22.2,-843.1 10.7,-83.6 24.2,-170 40.9,-258.7 12.3,-65.1 14.1,-153.7 8.9,-255.5 -23.5,-465.3 -194.3,-1188.5 -194.3,-1188.5"
         style="fill:#35488b;fill-opacity:1;fill-rule:nonzero;stroke:none"
         id="path84" /><path
         d="m 21940,11142.3 506.2,-1006.5 c 3.7,21.5 8.3,47.3 13.4,77 15.2,86.9 36.1,205.8 59.9,341.1 54.9,311.5 126,709.8 181.3,1002.5 l -29,9.3 -313.1,101 -64.7,205.6 -233.1,61.3 c 0,0 -52.1,-101.8 -98.7,-583.1 -8.5,-63.1 -16.4,-132.8 -22.2,-208.2"
         style="fill:#2c3a64;fill-opacity:1;fill-rule:nonzero;stroke:none"
         id="path86" /><path
         d="m 22162.7,11804.5 11.7,100.5 c 196.4,-52.2 721,145.7 721,145.7 0,0 190.2,-167.2 165.2,-568 -12.2,-195.6 -34.5,-1026.9 -57.7,-1272.8 -8.4,-89.2 -15.8,-152.6 -18.8,-178 v -0.2 c -1,-7.8 1.7,-15.1 5.7,-21.8 34.2,-58.1 62.5,-118.6 85.8,-180.5 228.2,-608.3 -35.2,-1357.3 -35.2,-1357.3 l -68.3,27.5 c 0,0 -149.9,833.6 -271.7,1201.9 -20.7,62.5 -40.5,111.5 -58.7,140.9 -52.9,85.4 -102.1,225.1 -146.7,391.2 -84.3,314 -152.1,722.5 -197.3,1037.8 -6.2,-0.2 -135,533.1 -135,533.1"
         style="fill:#35488b;fill-opacity:1;fill-rule:nonzero;stroke:none"
         id="path88" /><path
         d="m 20753.2,12138.5 14.6,-98.4 c 0,0 6.5,0 17.9,0.8 35.8,2.5 122.7,7.4 221,17.9 148,14.7 323.5,40.7 393.4,83.7 106.5,65.1 281.2,264.2 395,463.3 3.2,4.9 5.7,9.8 8.1,14.6 59.4,105.7 100.8,210.5 104.1,294.2 2.4,51.2 -3.3,95.1 -13.9,133.3 -13.8,50.4 -36.5,90.2 -60.1,120.3 -3.3,4.9 -6.5,9.8 -11.4,13.8 -39,46.3 -77.2,65.9 -77.2,65.9 -19.5,8.1 -40.6,-1.7 -62.6,-25.2 v -0.8 c -17.9,-18.7 -37.4,-47.2 -56,-83 l -1.7,-2.4 c -4,-7.3 -8.1,-15.4 -13,-24.4 -1.6,-1.6 -2.4,-4 -3.2,-5.7 -9,-18.6 -17.9,-38.2 -26.9,-58.5 -99.9,-217.8 -206.4,-547.7 -295,-646.1 -38.2,-42.2 -212.9,-125.1 -351.9,-186.9 -99.9,-43.9 -181.2,-76.4 -181.2,-76.4"
         style="fill:#ffb27d;fill-opacity:1;fill-rule:nonzero;stroke:none"
         id="path90" /><path
         d="m 21787.6,13023.5 c 61.6,-28.6 136.1,-48.1 226.1,-53 337.6,-18.5 414.2,277.4 428.1,473.8 -48.6,17.7 -91.2,16 -115.8,14.7 -23.9,-1.3 -48.9,-3.8 -69.5,-6.3 -41.3,21.5 -115.5,126.3 -158.4,301.6 l -14.5,-6.8 -243.6,-114.5 c 0,0 25.9,-79.2 45,-155.1 14.9,-59.3 25.6,-116.7 16.7,-132.7 -19.2,-7.8 -30.7,-12.7 -30.7,-12.7 l -0.1,-0.3 c -2.5,-6.2 -55.4,-141.2 -83.3,-308.7"
         style="fill:#ffb27d;fill-opacity:1;fill-rule:nonzero;stroke:none"
         id="path92" /><path
         d="m 21703.2,12802 c 2.5,-6.7 5.3,-13.3 8.4,-20.1 85.5,-184.1 243.7,-946.8 243.7,-946.8 -22.5,-137.2 1030.6,26.9 1033.3,151.8 37.1,132.4 -131.6,345.1 -226.7,451.8 -11.9,13.4 -22.7,27.8 -31.9,42.9 -23.5,38.1 -38.4,81 -43.2,125.9 -18.7,177 -11.6,342.9 -13.1,443.8 v 0 c -18.6,13.7 -36.6,26.5 -53.3,38.6 -25.6,18.6 -48.3,36.1 -64.9,53.8 -18.4,19.3 -29.8,39 -31.2,61.3 -0.9,16.8 -0.4,34.1 1.4,51.4 0.8,8.1 1.8,16.3 3,24.4 13.2,85.7 49,163.4 49,163.4 -90.6,36.6 -251.7,14.8 -251.7,14.8 0,0 0.2,-9 0.3,-23.6 0.5,-58.8 0,-209.9 -18.9,-238.5 -23.6,-35.6 -455,-191.6 -477.8,-143.3 -22.5,47.6 39,270.2 41.3,278.6 l 0.1,0.3 c -144.5,-56.8 -196.2,-104.4 -196.2,-104.4 87.1,-56.4 -39,-247.5 28.4,-426.1"
         style="fill:#4caf50;fill-opacity:1;fill-rule:nonzero;stroke:none"
         id="path94" /><path
         d="m 21993.8,14393 c 0.5,14.6 11.8,172.3 252,180.6 0,0 -118.1,-14.1 -138.5,-66 0,0 80.5,64.1 146,43.5 65.5,-20.7 103.9,-135.4 104.3,-173.2 0.4,-37.7 -36,-159.4 -77.6,-169.7 -15.7,-3.9 -33.8,-2.9 -50.3,-0.1 11,-17.2 21.9,-36.3 32.2,-57.6 95.9,-196.7 -3,-389 -84.1,-367.8 -52,13.7 -66.8,-75.1 -66.8,-75.1 l -505.6,409.3 c 0,0 185.7,384.2 388.4,276.1"
         style="fill:#2c3a64;fill-opacity:1;fill-rule:nonzero;stroke:none"
         id="path96" /><path
         d="m 21840,13633 c 0,0 25.9,-79.2 45,-155.1 142.4,39.7 185.6,189.4 198.6,269.6 L 21840,13633"
         style="fill:#ed985f;fill-opacity:1;fill-rule:nonzero;stroke:none"
         id="path98" /><path
         d="m 21810,13549.1 c 0,0 340.7,78.9 288.3,290.2 -52.4,211.4 -43.7,363.9 -263.3,322.5 -219.7,-41.4 -241.9,-132.4 -241.5,-207.2 0.3,-74.8 126.6,-420.5 216.5,-405.5"
         style="fill:#ffb27d;fill-opacity:1;fill-rule:nonzero;stroke:none"
         id="path100" /><path
         d="m 21574.3,14074.6 c 36.6,76.6 79.7,72.5 106.7,58.9 160,148.1 317,27.1 317,27.1 60.4,-146 191.4,-205.6 191.4,-205.6 0,0 -52.3,-53.6 -204,-52.4 -46.3,0.3 -92.9,21.6 -135.3,50.9 81.8,-82.3 177.6,-132.4 177.6,-132.4 -189.8,36.3 -317.1,256.1 -330.2,279.4 -16.1,-23.7 -46.8,-74.3 -49.4,-117 -3.5,-58 16.4,-170.7 -16.8,-174.9 0,0 -111.9,151.1 -57,266"
         style="fill:#2c3a64;fill-opacity:1;fill-rule:nonzero;stroke:none"
         id="path102" /><path
         d="m 21674.8,13228.2 c 0,0 -82,-143.1 -94.3,-179.9 0,0 106.4,4.1 149.3,-77.7 0,0 10.3,238.3 -55,257.6"
         style="fill:#4caf50;fill-opacity:1;fill-rule:nonzero;stroke:none"
         id="path104" /><path
         d="m 22238.9,12091.4 c 207.7,2.2 383.6,217.9 491.1,390.2 -23.5,38.1 -38.4,81 -43.2,125.9 -18.7,177 -11.6,342.9 -13.1,443.8 v 0 c -18.6,13.7 -36.6,26.5 -53.3,38.6 -25.6,18.6 -48.3,36.1 -64.9,53.8 -170.1,-287.5 -598.3,-1055.3 -316.6,-1052.3"
         style="fill:#3c8c40;fill-opacity:1;fill-rule:nonzero;stroke:none"
         id="path106" /><path
         d="m 21453.8,11978.4 28.4,-104 c 0,0 35.8,6.5 92.7,17 17,3.3 26.8,5.7 26.8,5.7 45.5,8.9 99.9,21.1 159.3,34.1 h 0.8 c 101.6,24.4 215.3,53.7 311.3,86.2 67.4,23.5 125.9,48.7 165.7,73.9 4.1,2.5 7.4,4.9 11.4,8.2 95.1,69 208.1,272.2 295.9,490.1 12.2,30 23.5,60.1 34.9,89.3 40.7,109 73.2,216.2 92.7,308.9 12.1,55.2 20.3,105.6 21.9,147.1 0.8,14.6 1.6,28.4 0.8,41.4 -1.6,235.7 -118.6,268.2 -118.6,268.2 -2.5,0.9 -4.9,1.7 -8.2,2.5 -20.3,3.2 -41.4,-10.6 -63.4,-37.4 -27.6,-33.3 -56.9,-87.8 -86.9,-153.6 -46.4,-104.9 -95.1,-240.6 -140.6,-375.5 -25.2,-73.9 -49.6,-147.9 -74,-216.2 -13.8,-41.4 -27.6,-80.4 -40.6,-116.2 -25.2,-68.3 -48,-123.5 -68.3,-158.5 -13,-22.7 -50.4,-54.4 -100,-90.2 -86.1,-62.6 -212.1,-138.2 -321.8,-199.9 -45.5,-26 -88.6,-49.6 -124.3,-69.1 -57.7,-31.7 -95.9,-52 -95.9,-52"
         style="fill:#ffb27d;fill-opacity:1;fill-rule:nonzero;stroke:none"
         id="path108" /><path
         d="m 22419.6,13255.7 c 156.4,43.1 277.1,-79.1 277.1,-79.1 -2,235.3 -119.1,267.5 -119.1,267.5 -47.1,19.6 -101.7,-62 -158,-188.4"
         style="fill:#4caf50;fill-opacity:1;fill-rule:nonzero;stroke:none"
         id="path110" /><path
         d="m 22643,8416.2 h 540.9 c 0,0 13,82.5 -15.2,145 -27.1,60 -69.5,87.3 -59.4,159.9 -34.3,-35.4 -90.4,-75 -168.5,-64.5 -9.6,-15.5 -61.9,-98.7 -93.9,-121.6 -35.4,-25.4 -193,-16.4 -203.9,-118.8"
         style="fill:#233862;fill-opacity:1;fill-rule:nonzero;stroke:none"
         id="path112" /><path
         d="m 21481.7,8416.2 h 540.9 c 0,0 20.2,86.3 -15.3,145 -31.5,51.9 -19.4,81.5 3.9,124.5 -24.5,-10 -56.2,-19.1 -91.1,-17.1 -27,1.5 -55.5,13.7 -80.5,28.3 -23.3,-26.6 -122.9,-139.6 -154.1,-161.9 -35.3,-25.4 -193,-16.4 -203.8,-118.8"
         style="fill:#233862;fill-opacity:1;fill-rule:nonzero;stroke:none"
         id="path114" /><path
         d="m 20725.6,11750.6 -146.2,-60 c -39.7,-16.3 -60.6,-59.5 -50.4,-100.1 l -15.6,-6.4 c -59.5,206.6 13.1,415 176.2,481.9 23,9.4 46.5,15.5 70.4,18.5 75.1,9.9 153.4,-10.3 223.8,-54.2 66.9,-41.6 126.5,-104.7 169.5,-183.9 l -21.5,-8.8 c -21.2,36 -66.4,52.2 -106.1,35.9 l -146.3,-60 c -11.4,27.9 -38.6,44.9 -67,44.9 -9,0 -18.3,-1.8 -27.1,-5.4 l -20.3,-8.3 c -36.7,-15.1 -54.4,-57.4 -39.4,-94.1 z m 696,-254.2 -128.6,313.6 c -16.7,40.9 -61.6,62.1 -103.3,50.6 -42.5,80.1 -101.2,145.1 -167.7,190.8 -70,48.2 -148.7,74.8 -226.3,74.5 -41,-0.2 -81.8,-8 -120.8,-24 -182.8,-74.8 -264.7,-305.8 -197.6,-532.5 l -10,-4.1 c 0,0 -31.2,2.2 -83.6,2.2 -165.6,0 -541.9,-22 -805.9,-205.4 0,0 -16.5,-17.7 -17.2,-44.6 -0.3,-9 1.2,-19 5.6,-29.6 0,0 423.8,274.4 815.7,-7.6 24.1,-17.2 47.4,-33.2 70.2,-48.1 l 35.1,-85.8 c 58.3,-142.3 222.4,-210.9 364.6,-152.6 l 359,147.1 74.8,30.7 c 126.7,51.9 188,198.1 136,324.8"
         style="fill:#c94c43;fill-opacity:1;fill-rule:nonzero;stroke:none"
         id="path116" /><path
         d="m 20452.1,11232.2 c -22.8,14.9 -46.1,30.9 -70.2,48.1 -391.9,282 -815.7,7.6 -815.7,7.6 -4.4,10.6 -5.9,20.6 -5.6,29.6 59.3,39 281.7,169 557.2,124.6 322.8,-52.1 381.2,-97 334.3,-209.9"
         style="fill:#b23b38;fill-opacity:1;fill-rule:nonzero;stroke:none"
         id="path118" /><path
         d="m 21285.6,11171.6 -74.8,-30.7 c 112.1,61.3 -26.7,319.9 -107.9,490.7 -81.3,170.8 -204.1,92.7 -204.1,92.7 -28.2,57.3 -88.5,54.2 -88.5,54.2 -3.2,55.1 -45.3,66.2 -45.3,66.2 l 20.3,8.3 c 8.8,3.6 18.1,5.4 27.1,5.4 28.4,0 55.6,-17 67,-44.9 l 146.3,60 c 39.7,16.3 84.9,0.1 106.1,-35.9 l 21.5,8.8 c -43,79.2 -102.6,142.3 -169.5,183.9 -70.4,43.9 -148.7,64.1 -223.8,54.2 11.7,9.5 24.4,22.8 35.7,41.4 77.6,0.3 156.3,-26.3 226.3,-74.5 66.5,-45.7 125.2,-110.7 167.7,-190.8 41.7,11.5 86.6,-9.7 103.3,-50.6 l 128.6,-313.6 c 52,-126.7 -9.3,-272.9 -136,-324.8"
         style="fill:#b23b38;fill-opacity:1;fill-rule:nonzero;stroke:none"
         id="path120" /><path
         d="m 21117.3,11877.6 c 52,-21.9 125.1,-98.3 242.2,-52 83.7,32.5 172.3,55.3 215.4,65.8 17,3.3 26.8,5.7 26.8,5.7 l -46.4,134.9 c 0,0 -1.6,-0.8 -5.6,-1.6 -30.1,-6.5 -182.9,-39 -254.4,-22.8 -80.5,18.7 -215.4,-78 -215.4,-78 0,0 -14.6,-30.9 37.4,-52"
         style="fill:#ffb27d;fill-opacity:1;fill-rule:nonzero;stroke:none"
         id="path122" /><path
         d="m 19648.9,11061.4 c 0,48.8 -88.3,199.5 -88.3,199.5 0,0 -88.4,-150.7 -88.4,-199.5 0,-48.8 39.5,-88.4 88.4,-88.4 48.8,0 88.3,39.6 88.3,88.4"
         style="fill:#ffffff;fill-opacity:1;fill-rule:nonzero;stroke:none"
         id="path124" /><path
         d="m 26564.7,2774.2 c 0,0 102.4,-94.8 82.4,-162.3 -19.9,-67.4 -112.3,-112.3 -124.8,-194.7 -12.5,-82.4 -62.4,-127.4 -107.4,-127.4 -44.9,0 -214.3,0 -214.3,0 0,0 -33.1,58 46.9,75.5 79.9,17.5 110,114.3 105,204.2 -5,89.9 7.5,209.7 7.5,209.7 l 169.8,40 34.9,-45"
         style="fill:#2c3a64;fill-opacity:1;fill-rule:nonzero;stroke:none"
         id="path126" /><path
         d="m 25308.8,2515.5 c 0,0 24.9,-199.7 -20,-222.2 -45,-22.5 -581.8,-15 -581.8,-15 0,0 0,67.4 92.4,82.4 92.4,15 254.7,69.9 282.1,192.3 27.5,122.3 227.3,-37.5 227.3,-37.5"
         style="fill:#2c3a64;fill-opacity:1;fill-rule:nonzero;stroke:none"
         id="path128" /><path
         d="m 24823.1,5565.9 c 0,0 30.4,-378.5 66,-833.5 48.5,-618.1 106.8,-1377.3 112.5,-1521.2 10,-249.7 50,-649.2 50,-649.2 0,0 94.8,-94.9 284.7,-54.9 0,0 169.1,570.3 217.4,1173.7 0.8,9.9 1.5,19.8 2.3,29.8 44.9,614.3 114.8,1907.7 114.8,1907.7 l -847.7,-52.4"
         style="fill:#35488b;fill-opacity:1;fill-rule:nonzero;stroke:none"
         id="path130" /><path
         d="m 24823.1,5565.9 c 0,0 30.4,-378.5 66,-833.5 l 664.6,-1051.6 c 0.8,9.9 1.5,19.8 2.3,29.8 44.9,614.3 114.8,1907.7 114.8,1907.7 l -847.7,-52.4"
         style="fill:#2c3a64;fill-opacity:1;fill-rule:nonzero;stroke:none"
         id="path132" /><path
         d="m 24961.7,5520.9 c 0,0 546.8,-1370.8 906.4,-2015 359.5,-644.3 471.9,-824 471.9,-824 0,0 206,82.4 224.7,138.5 0,0 -137.5,1243.7 -378.3,1546.9 -136,171.3 -295.8,685.4 -303.3,865.2 -7.5,179.8 -48.7,535.6 -48.7,535.6 l -872.7,-247.2"
         style="fill:#35488b;fill-opacity:1;fill-rule:nonzero;stroke:none"
         id="path134" /><path
         d="m 23888.5,5710.7 c 0,0 -193,-92.7 -218.9,-116.4 -26,-23.8 -90.1,-140.5 -85.2,-149.3 4.9,-8.8 14.5,-11.5 32,0.6 17.5,12.1 66.6,62.6 68.4,53.2 1.8,-9.4 -131,-165.6 -107.5,-198.7 23.5,-33.1 156.6,-23.3 232.6,30.8 76.1,54 152,252.8 163.4,263.6 96.9,92.1 -84.8,116.2 -84.8,116.2"
         style="fill:#ffb27d;fill-opacity:1;fill-rule:nonzero;stroke:none"
         id="path136" /><path
         d="m 23879.8,5611.4 c -53.6,46.6 -55,58.4 -55,58.4 0,0 342.2,591.7 371.9,648.6 29.6,56.9 213,945.6 213,945.6 l 634,183.8 c 0,0 -446.6,-1154.7 -524.5,-1297.5 -128.9,-235.8 -549.6,-582.9 -549.6,-582.9 0,0 -47.7,7.4 -89.8,44"
         style="fill:#3c8c40;fill-opacity:1;fill-rule:nonzero;stroke:none"
         id="path138" /><path
         d="m 24720.8,7679 c 0,0 -223.1,-392.5 -441.2,-443.8 0,0 9.1,131.9 62.1,222.1 -21.7,25.7 -40.8,49.2 -57.3,70.3 -54.9,70.4 -81,113.4 -81,113.4 l 74,199 50.2,135 c 24.1,-43.8 50.8,-81.2 78.5,-113.1 142.9,-164.3 314.7,-182.9 314.7,-182.9"
         style="fill:#ffb27d;fill-opacity:1;fill-rule:nonzero;stroke:none"
         id="path140" /><path
         d="m 24406.1,7861.9 c 0,0 26.6,-196.7 -121.7,-334.3 -54.9,70.4 -81,113.4 -81,113.4 l 74,199 c 79.4,24.2 128.7,21.9 128.7,21.9"
         style="fill:#ed975d;fill-opacity:1;fill-rule:nonzero;stroke:none"
         id="path142" /><path
         d="m 24144.6,7612 c 0,0 333.3,130 249.2,336.3 -84.1,206.4 -97.7,362.1 -314.2,287.9 -216.3,-74.3 -225.3,-169.8 -214,-245.5 11.3,-75.7 190.1,-407.2 279,-378.7"
         style="fill:#ffb27d;fill-opacity:1;fill-rule:nonzero;stroke:none"
         id="path144" /><path
         d="m 25866.7,5664.5 c -134.5,-193.3 -1140,-451.6 -1128,-317.8 4.6,51.2 10.7,141.5 -0.1,263.9 -2.6,28.7 -6.2,59.1 -10.7,91.2 -25.6,175.9 -86.2,401.9 -221.6,663.7 -10.2,19.7 -20.7,39.4 -31.7,59.4 -55.8,101.4 -103.1,208.4 -139.3,313.2 -69.7,201.4 -97.9,394 -62.6,519.9 l 0.5,1.7 c 210.1,97.2 291.6,474.1 291.6,474.1 0,0 717,-128.7 1118.7,-1084.4 0,0 38.6,-105 82.6,-247.4 53.6,-172.8 115.2,-400.5 125.9,-563 5.2,-77.1 -1.2,-139.6 -25.3,-174.5"
         style="fill:#4caf50;fill-opacity:1;fill-rule:nonzero;stroke:none"
         id="path146" /><path
         d="m 24441.7,8331.7 c 2.3,4.6 9.1,9.5 25.6,14.6 0,0 -15.5,5.2 -33.5,1.2 -9.4,22.8 -32.1,61.7 -74.8,62 0,0 24.5,-6.3 33.5,-30.8 -58.5,37 -166.9,47.8 -437.5,-42.3 -356.6,-118.8 -178.4,-325.8 -124.3,-342.4 54,-16.6 153.5,89.9 243,104.4 89.5,14.6 137.9,-110.1 172,-120.4 34.1,-10.4 14.7,18 50.5,46.4 35.7,28.4 56.2,-38.4 55.4,-85.4 -0.8,-46.9 68.9,-91.4 68.9,-91.4 0,0 0,0 40.9,75 40.8,74.9 29.7,347 -9.3,395.9 -3.5,4.4 -6.9,8.8 -10.4,13.2"
         style="fill:#2b478b;fill-opacity:1;fill-rule:nonzero;stroke:none"
         id="path148" /><path
         d="m 25892,5839 c -865.2,261 -1002.8,1292.6 -1002.8,1292.6 0,0 492.6,-376.5 876.9,-729.6 53.6,-172.8 115.2,-400.5 125.9,-563"
         style="fill:#3c8c40;fill-opacity:1;fill-rule:nonzero;stroke:none"
         id="path150" /><path
         d="m 26129.2,5805.2 c 0,0 -19.5,-163.7 -14.8,-190.4 4.8,-26.8 35.9,-106.2 43.7,-106.7 7.7,-0.4 31.3,-1.3 30.6,15 -0.6,16.4 -11.2,31.7 -4.4,29 6.9,-2.7 8.8,-64.5 40,-62.9 31.2,1.6 123.1,36.2 119.4,108 -3.8,71.7 -101.6,203.2 -104,215.1 -19.7,101 -110.5,-7.1 -110.5,-7.1"
         style="fill:#ffb27d;fill-opacity:1;fill-rule:nonzero;stroke:none"
         id="path152" /><path
         d="m 26181.1,5777.5 c -68.7,-31.4 -94.2,0.7 -94.2,0.7 0,0 -399.8,667.6 -441.9,721.3 -42.1,53.7 -780.2,370.5 -780.2,370.5 0,0 -300.4,114.8 -312.3,297 -10.3,158.4 79.6,255.6 178,314.3 117.3,69.9 265.8,59.6 373.6,-24.1 242.2,-188.1 722.2,-566.3 799.4,-668.9 171.9,-228.2 362.5,-943.8 362.5,-943.8 0,0 -31,-42.3 -84.9,-67"
         style="fill:#4caf50;fill-opacity:1;fill-rule:nonzero;stroke:none"
         id="path154" /><path
         d="m 24462.3,5324.8 -179.9,-179.8 -2.5,1.5 -270.1,169.5 c 0,0 139.8,-45.2 158.7,-39.9 17.8,5 213,72.1 259,66.5 2.9,-0.4 5.1,-1 6.8,-1.9 28,-15.9 28,-15.9 28,-15.9"
         style="fill:#4a75cb;fill-opacity:1;fill-rule:nonzero;stroke:none"
         id="path156" /><path
         d="m 24274.2,5096.2 c -7.2,1.5 -28.6,6.6 -57.8,14.1 -83.8,21.4 -231.7,62.6 -290.1,96.4 -52.3,30.3 -329,191.2 -519.7,304.2 76.1,40.7 151.1,46.4 214,38.5 222.5,-130.7 513.3,-302.2 548.9,-327.2 58.5,-41.2 138.3,-91 138.3,-91 0,0 -0.3,-2.2 -1.1,-5.6 -2.7,-11.1 -11,-34.1 -32.5,-29.4"
         style="fill:#e58638;fill-opacity:1;fill-rule:nonzero;stroke:none"
         id="path158" /><path
         d="m 24274.2,5096.2 c -7.2,1.5 -28.6,6.6 -57.8,14.1 -83.8,21.4 -231.7,62.6 -290.1,96.4 -52.3,30.3 -329,191.2 -519.7,304.2 -95.7,56.7 -169.7,101.4 -182.7,111.4 -38.9,29.9 -113.8,104.7 -95.4,118.8 11.7,8.9 30.4,6.5 46,4 9,-1.4 16.9,-2.8 21.8,-2 l 0.6,0.1 c 3.2,0.4 8.4,1.3 15.6,1.7 25.7,1.5 76.7,-2 149.3,-43.9 0,0 115.2,-67.3 258.8,-151.6 222.5,-130.7 513.3,-302.2 548.9,-327.2 58.5,-41.2 138.3,-91 138.3,-91 0,0 -0.3,-2.2 -1.1,-5.6 -2.7,-11.1 -11,-34.1 -32.5,-29.4"
         style="fill:#739af0;fill-opacity:1;fill-rule:nonzero;stroke:none"
         id="path160" /><path
         d="m 24274.2,5096.2 c -7.2,1.5 -28.6,6.6 -57.8,14.1 3.8,33.2 -19.4,59.7 -19.4,59.7 l 109.7,-44.4 c -2.7,-11.1 -11,-34.1 -32.5,-29.4"
         style="fill:#4a75cb;fill-opacity:1;fill-rule:nonzero;stroke:none"
         id="path162" /><path
         d="m 24038.3,5237 c -0.6,0 -1.2,0.2 -1.8,0.5 -1.7,1 -2.3,3.2 -1.3,4.9 l 2,3.3 c 0.7,1.2 1.9,1.8 3.1,1.8 0.6,0 1.3,-0.2 1.8,-0.5 1.8,-1 2.3,-3.2 1.3,-4.9 l -1.9,-3.3 c -0.7,-1.2 -1.9,-1.8 -3.2,-1.8"
         style="fill:#5e87dd;fill-opacity:1;fill-rule:nonzero;stroke:none"
         id="path164" /><path
         d="m 24022.3,5246.5 c -0.6,0 -1.2,0.1 -1.8,0.5 -1.7,1 -2.3,3.2 -1.3,4.9 l 2,3.3 c 0.6,1.2 1.8,1.8 3.1,1.8 0.6,0 1.2,-0.2 1.8,-0.5 1.7,-1 2.3,-3.3 1.3,-5 l -2,-3.3 c -0.6,-1.1 -1.8,-1.7 -3.1,-1.7"
         style="fill:#5e87dd;fill-opacity:1;fill-rule:nonzero;stroke:none"
         id="path166" /><path
         d="m 24006.3,5256 c -0.6,0 -1.3,0.1 -1.8,0.5 -1.8,1 -2.3,3.2 -1.3,4.9 l 1.9,3.3 c 0.7,1.1 1.9,1.8 3.1,1.8 0.7,0 1.3,-0.2 1.9,-0.5 1.7,-1 2.3,-3.3 1.2,-5 l -1.9,-3.3 c -0.7,-1.1 -1.9,-1.7 -3.1,-1.7"
         style="fill:#5e87dd;fill-opacity:1;fill-rule:nonzero;stroke:none"
         id="path168" /><path
         d="m 23990.3,5265.4 c -0.7,0 -1.3,0.2 -1.9,0.5 -1.7,1 -2.3,3.3 -1.2,5 l 1.9,3.3 c 0.7,1.1 1.9,1.7 3.1,1.7 0.6,0 1.3,-0.1 1.9,-0.5 1.6,-1 2.2,-3.2 1.2,-4.9 l -1.9,-3.3 c -0.7,-1.1 -1.9,-1.8 -3.1,-1.8"
         style="fill:#5e87dd;fill-opacity:1;fill-rule:nonzero;stroke:none"
         id="path170" /><path
         d="m 23974.2,5274.9 c -0.6,0 -1.2,0.2 -1.8,0.5 -1.7,1 -2.3,3.2 -1.3,5 l 2,3.2 c 0.6,1.2 1.8,1.8 3.1,1.8 0.6,0 1.2,-0.1 1.8,-0.5 1.7,-1 2.3,-3.2 1.3,-4.9 l -2,-3.3 c -0.6,-1.2 -1.8,-1.8 -3.1,-1.8"
         style="fill:#5e87dd;fill-opacity:1;fill-rule:nonzero;stroke:none"
         id="path172" /><path
         d="m 23958.2,5284.4 c -0.6,0 -1.3,0.1 -1.8,0.5 -1.7,1 -2.3,3.2 -1.3,4.9 l 1.9,3.3 c 0.7,1.2 1.9,1.8 3.2,1.8 0.6,0 1.2,-0.2 1.8,-0.5 1.7,-1 2.3,-3.2 1.2,-5 l -1.9,-3.2 c -0.7,-1.2 -1.9,-1.8 -3.1,-1.8"
         style="fill:#5e87dd;fill-opacity:1;fill-rule:nonzero;stroke:none"
         id="path174" /><path
         d="m 23942.2,5293.9 c -0.7,0 -1.3,0.1 -1.9,0.5 -1.7,1 -2.2,3.2 -1.2,4.9 l 1.9,3.3 c 0.7,1.1 1.9,1.8 3.1,1.8 0.6,0 1.3,-0.2 1.8,-0.5 1.8,-1 2.3,-3.3 1.3,-5 l -1.9,-3.3 c -0.7,-1.1 -1.9,-1.7 -3.1,-1.7"
         style="fill:#5e87dd;fill-opacity:1;fill-rule:nonzero;stroke:none"
         id="path176" /><path
         d="m 23926.1,5303.3 c -0.6,0 -1.2,0.2 -1.8,0.5 -1.7,1.1 -2.3,3.3 -1.3,5 l 2,3.3 c 0.6,1.1 1.9,1.7 3.1,1.7 0.6,0 1.2,-0.1 1.8,-0.5 1.7,-1 2.3,-3.2 1.3,-4.9 l -1.9,-3.3 c -0.7,-1.1 -1.9,-1.8 -3.2,-1.8"
         style="fill:#5e87dd;fill-opacity:1;fill-rule:nonzero;stroke:none"
         id="path178" /><path
         d="m 23910.1,5312.8 c -0.6,0 -1.3,0.2 -1.8,0.5 -1.7,1 -2.3,3.2 -1.3,5 l 1.9,3.2 c 0.7,1.2 1.9,1.8 3.2,1.8 0.6,0 1.2,-0.1 1.8,-0.5 1.7,-1 2.3,-3.2 1.3,-4.9 l -2,-3.3 c -0.7,-1.1 -1.9,-1.8 -3.1,-1.8"
         style="fill:#5e87dd;fill-opacity:1;fill-rule:nonzero;stroke:none"
         id="path180" /><path
         d="m 23721.2,5424.5 c -0.6,0 -1.3,0.1 -1.8,0.5 -1.8,1 -2.3,3.2 -1.3,4.9 l 1.9,3.3 c 0.7,1.2 1.9,1.8 3.2,1.8 0.6,0 1.2,-0.2 1.8,-0.5 1.7,-1 2.3,-3.3 1.2,-5 l -1.9,-3.3 c -0.7,-1.1 -1.9,-1.7 -3.1,-1.7"
         style="fill:#5e87dd;fill-opacity:1;fill-rule:nonzero;stroke:none"
         id="path182" /><path
         d="m 23705.2,5434 c -0.7,0 -1.3,0.1 -1.9,0.5 -1.7,1 -2.3,3.2 -1.2,4.9 l 1.9,3.3 c 0.7,1.1 1.9,1.8 3.1,1.8 0.6,0 1.3,-0.2 1.8,-0.5 1.8,-1 2.3,-3.3 1.3,-5 l -1.9,-3.3 c -0.7,-1.1 -1.9,-1.7 -3.1,-1.7"
         style="fill:#5e87dd;fill-opacity:1;fill-rule:nonzero;stroke:none"
         id="path184" /><path
         d="m 23689.1,5443.4 c -0.6,0 -1.2,0.2 -1.8,0.5 -1.7,1 -2.3,3.3 -1.3,5 l 2,3.3 c 0.6,1.1 1.8,1.7 3.1,1.7 0.6,0 1.2,-0.1 1.8,-0.5 1.7,-1 2.3,-3.2 1.3,-4.9 l -2,-3.3 c -0.6,-1.1 -1.8,-1.8 -3.1,-1.8"
         style="fill:#5e87dd;fill-opacity:1;fill-rule:nonzero;stroke:none"
         id="path186" /><path
         d="m 23657.1,5462.4 c -0.7,0 -1.3,0.1 -1.9,0.5 -1.7,1 -2.3,3.2 -1.2,4.9 l 1.9,3.3 c 0.7,1.2 1.9,1.8 3.1,1.8 0.6,0 1.3,-0.2 1.8,-0.5 1.8,-1 2.3,-3.2 1.3,-5 l -1.9,-3.2 c -0.7,-1.2 -1.9,-1.8 -3.1,-1.8"
         style="fill:#5e87dd;fill-opacity:1;fill-rule:nonzero;stroke:none"
         id="path188" /><path
         d="m 23625,5481.3 c -0.6,0 -1.3,0.2 -1.8,0.5 -1.7,1 -2.3,3.3 -1.3,5 l 1.9,3.3 c 0.7,1.1 1.9,1.7 3.2,1.7 0.6,0 1.2,-0.1 1.8,-0.5 1.7,-1 2.3,-3.2 1.3,-4.9 l -2,-3.3 c -0.7,-1.1 -1.9,-1.8 -3.1,-1.8"
         style="fill:#5e87dd;fill-opacity:1;fill-rule:nonzero;stroke:none"
         id="path190" /><path
         d="m 23609,5490.8 c -0.7,0 -1.3,0.2 -1.9,0.5 -1.7,1 -2.3,3.2 -1.2,5 l 1.9,3.2 c 0.7,1.2 1.9,1.8 3.1,1.8 0.6,0 1.3,-0.1 1.9,-0.5 1.7,-1 2.2,-3.2 1.2,-4.9 l -1.9,-3.3 c -0.7,-1.2 -1.9,-1.8 -3.1,-1.8"
         style="fill:#5e87dd;fill-opacity:1;fill-rule:nonzero;stroke:none"
         id="path192" /><path
         d="m 23592.9,5500.3 c -0.6,0 -1.2,0.2 -1.8,0.5 -1.7,1 -2.3,3.2 -1.3,4.9 l 2,3.3 c 0.6,1.2 1.9,1.8 3.1,1.8 0.6,0 1.3,-0.2 1.8,-0.5 1.7,-1 2.3,-3.2 1.3,-5 l -2,-3.2 c -0.6,-1.2 -1.8,-1.8 -3.1,-1.8"
         style="fill:#5e87dd;fill-opacity:1;fill-rule:nonzero;stroke:none"
         id="path194" /><path
         d="m 23530.9,5537 c -0.6,0 -1.3,0.1 -1.8,0.5 -1.7,1 -2.3,3.2 -1.3,4.9 l 1.9,3.3 c 0.7,1.1 1.9,1.8 3.2,1.8 0.6,0 1.2,-0.2 1.8,-0.5 1.7,-1 2.3,-3.3 1.2,-5 l -1.9,-3.3 c -0.7,-1.1 -1.9,-1.7 -3.1,-1.7"
         style="fill:#5e87dd;fill-opacity:1;fill-rule:nonzero;stroke:none"
         id="path196" /><path
         d="m 23562.2,5518.4 c -0.6,0 -1.2,0.2 -1.8,0.5 -1.7,1 -2.3,3.3 -1.3,5 l 2,3.3 c 0.7,1.1 1.9,1.7 3.1,1.7 0.6,0 1.3,-0.1 1.8,-0.5 1.7,-1 2.3,-3.2 1.3,-4.9 l -2,-3.3 c -0.6,-1.1 -1.8,-1.8 -3.1,-1.8"
         style="fill:#5e87dd;fill-opacity:1;fill-rule:nonzero;stroke:none"
         id="path198" /><path
         d="m 23514.9,5546.4 c -0.7,0 -1.3,0.2 -1.9,0.5 -1.7,1 -2.2,3.3 -1.2,5 l 1.9,3.3 c 0.7,1.1 1.9,1.7 3.1,1.7 0.6,0 1.3,-0.1 1.9,-0.5 1.7,-1 2.2,-3.2 1.2,-4.9 l -1.9,-3.3 c -0.7,-1.1 -1.9,-1.8 -3.1,-1.8"
         style="fill:#5e87dd;fill-opacity:1;fill-rule:nonzero;stroke:none"
         id="path200" /><path
         d="m 23498.8,5555.9 c -0.6,0 -1.2,0.2 -1.8,0.5 -1.7,1 -2.3,3.3 -1.3,5 l 2,3.3 c 0.6,1.1 1.9,1.7 3.1,1.7 0.6,0 1.2,-0.1 1.8,-0.5 1.7,-1 2.3,-3.2 1.3,-4.9 l -2,-3.3 c -0.6,-1.1 -1.8,-1.8 -3.1,-1.8"
         style="fill:#5e87dd;fill-opacity:1;fill-rule:nonzero;stroke:none"
         id="path202" /><path
         d="m 23482.8,5565.4 c -0.6,0 -1.3,0.2 -1.8,0.5 -1.7,1 -2.3,3.2 -1.3,4.9 l 1.9,3.3 c 0.7,1.2 1.9,1.8 3.2,1.8 0.6,0 1.2,-0.2 1.8,-0.5 1.7,-1 2.3,-3.2 1.3,-4.9 l -2,-3.3 c -0.7,-1.2 -1.9,-1.8 -3.1,-1.8"
         style="fill:#5e87dd;fill-opacity:1;fill-rule:nonzero;stroke:none"
         id="path204" /><path
         d="m 23466.8,5574.9 c -0.7,0 -1.3,0.1 -1.9,0.5 -1.7,1 -2.2,3.2 -1.2,4.9 l 1.9,3.3 c 0.7,1.1 1.9,1.8 3.1,1.8 0.7,0 1.3,-0.2 1.9,-0.5 1.7,-1 2.2,-3.3 1.2,-5 l -1.9,-3.3 c -0.7,-1.1 -1.9,-1.7 -3.1,-1.7"
         style="fill:#5e87dd;fill-opacity:1;fill-rule:nonzero;stroke:none"
         id="path206" /><path
         d="m 23450.7,5584.3 c -0.6,0 -1.2,0.2 -1.8,0.5 -1.7,1.1 -2.3,3.3 -1.3,5 l 2,3.3 c 0.6,1.1 1.9,1.8 3.1,1.8 0.6,0 1.2,-0.2 1.8,-0.6 1.7,-1 2.3,-3.2 1.3,-4.9 l -2,-3.3 c -0.6,-1.1 -1.8,-1.8 -3.1,-1.8"
         style="fill:#5e87dd;fill-opacity:1;fill-rule:nonzero;stroke:none"
         id="path208" /><path
         d="m 23434.7,5593.8 c -0.6,0 -1.3,0.2 -1.8,0.5 -1.7,1 -2.3,3.3 -1.3,5 l 1.9,3.3 c 0.7,1.1 1.9,1.7 3.2,1.7 0.6,0 1.2,-0.1 1.8,-0.5 1.7,-1 2.3,-3.2 1.3,-4.9 l -2,-3.3 c -0.7,-1.1 -1.9,-1.8 -3.1,-1.8"
         style="fill:#5e87dd;fill-opacity:1;fill-rule:nonzero;stroke:none"
         id="path210" /><path
         d="m 23418.7,5603.3 c -0.7,0 -1.3,0.2 -1.9,0.5 -1.7,1 -2.2,3.2 -1.2,4.9 l 1.9,3.3 c 0.7,1.2 1.9,1.8 3.1,1.8 0.7,0 1.3,-0.2 1.9,-0.5 1.7,-1 2.2,-3.2 1.2,-4.9 l -1.9,-3.3 c -0.7,-1.2 -1.9,-1.8 -3.1,-1.8"
         style="fill:#5e87dd;fill-opacity:1;fill-rule:nonzero;stroke:none"
         id="path212" /><path
         d="m 23402.6,5612.8 c -0.6,0 -1.2,0.1 -1.8,0.5 -1.7,1 -2.3,3.2 -1.3,4.9 l 2,3.3 c 0.7,1.1 1.9,1.8 3.1,1.8 0.6,0 1.3,-0.2 1.8,-0.5 1.7,-1 2.3,-3.2 1.3,-5 l -2,-3.3 c -0.6,-1.1 -1.8,-1.7 -3.1,-1.7"
         style="fill:#5e87dd;fill-opacity:1;fill-rule:nonzero;stroke:none"
         id="path214" /><path
         d="m 23386.9,5622.1 c -0.6,0 -1.2,0.1 -1.8,0.5 -1.7,1 -2.3,3.2 -1.3,4.9 l 2,3.3 c 0.6,1.1 1.9,1.8 3.1,1.8 0.6,0 1.2,-0.2 1.8,-0.5 1.7,-1 2.3,-3.3 1.3,-5 l -2,-3.3 c -0.6,-1.1 -1.8,-1.7 -3.1,-1.7"
         style="fill:#5e87dd;fill-opacity:1;fill-rule:nonzero;stroke:none"
         id="path216" /><path
         d="m 23370.9,5631.5 c -0.6,0 -1.3,0.2 -1.8,0.5 -1.7,1 -2.3,3.3 -1.3,5 l 1.9,3.3 c 0.7,1.1 1.9,1.7 3.2,1.7 0.6,0 1.2,-0.1 1.8,-0.5 1.7,-1 2.3,-3.2 1.3,-4.9 l -2,-3.3 c -0.7,-1.1 -1.9,-1.8 -3.1,-1.8"
         style="fill:#5e87dd;fill-opacity:1;fill-rule:nonzero;stroke:none"
         id="path218" /><path
         d="m 23354.9,5641 c -0.7,0 -1.3,0.2 -1.9,0.5 -1.7,1 -2.2,3.3 -1.2,5 l 1.9,3.3 c 0.7,1.1 1.9,1.7 3.1,1.7 0.7,0 1.3,-0.1 1.9,-0.5 1.7,-1 2.2,-3.2 1.2,-4.9 l -1.9,-3.3 c -0.7,-1.1 -1.9,-1.8 -3.1,-1.8"
         style="fill:#5e87dd;fill-opacity:1;fill-rule:nonzero;stroke:none"
         id="path220" /><path
         d="m 23225.5,5722.1 c -0.7,0 -1.3,0.1 -1.9,0.3 l -1.6,0.9 -25.1,19.9 c 3.2,0.4 8.4,1.3 15.6,1.7 l 16.4,-13 c 2.4,-1.9 2.8,-5.4 0.9,-7.7 -1.1,-1.4 -2.7,-2.1 -4.3,-2.1"
         style="fill:#5e87dd;fill-opacity:1;fill-rule:nonzero;stroke:none"
         id="path222" /><path
         d="m 23636.7,5456 c -1.1,0 -2.3,0.3 -3.4,0.9 l -4.9,2.9 c -3.2,1.9 -4.3,6.1 -2.4,9.3 l 12,20.3 c 1.3,2.2 3.6,3.4 5.9,3.4 1.2,0 2.4,-0.3 3.4,-1 l 4.9,-2.9 c 3.2,-1.9 4.3,-6 2.4,-9.3 l -12,-20.3 c -1.3,-2.1 -3.5,-3.3 -5.9,-3.3"
         style="fill:#5e87dd;fill-opacity:1;fill-rule:nonzero;stroke:none"
         id="path224" /><path
         d="m 23668.6,5437.2 c -1.2,0 -2.4,0.3 -3.5,0.9 l -4.8,2.9 c -3.2,1.9 -4.3,6.1 -2.4,9.3 l 12,20.3 c 1.3,2.2 3.5,3.3 5.9,3.3 1.1,0 2.3,-0.3 3.4,-0.9 l 4.9,-2.9 c 3.2,-1.9 4.3,-6.1 2.4,-9.3 l -12,-20.3 c -1.3,-2.1 -3.6,-3.3 -5.9,-3.3"
         style="fill:#5e87dd;fill-opacity:1;fill-rule:nonzero;stroke:none"
         id="path226" /><path
         d="m 23863,5340.7 c -0.7,0 -1.3,0.1 -1.9,0.5 -1.7,1 -2.2,3.2 -1.2,4.9 l 1.9,3.3 c 0.7,1.1 1.9,1.8 3.1,1.8 0.7,0 1.3,-0.2 1.9,-0.5 1.7,-1 2.2,-3.3 1.2,-5 l -1.9,-3.3 c -0.7,-1.1 -1.9,-1.7 -3.1,-1.7"
         style="fill:#5e87dd;fill-opacity:1;fill-rule:nonzero;stroke:none"
         id="path228" /><path
         d="m 23846.9,5350.1 c -0.6,0 -1.2,0.2 -1.8,0.5 -1.7,1.1 -2.3,3.3 -1.3,5 l 2,3.3 c 0.7,1.1 1.9,1.8 3.1,1.8 0.6,0 1.3,-0.2 1.8,-0.5 1.7,-1.1 2.3,-3.3 1.3,-5 l -1.9,-3.3 c -0.7,-1.1 -1.9,-1.8 -3.2,-1.8"
         style="fill:#5e87dd;fill-opacity:1;fill-rule:nonzero;stroke:none"
         id="path230" /><path
         d="m 23830.9,5359.6 c -0.6,0 -1.2,0.2 -1.8,0.5 -1.7,1 -2.3,3.3 -1.3,5 l 2,3.3 c 0.6,1.1 1.8,1.7 3.1,1.7 0.6,0 1.2,-0.1 1.8,-0.5 1.7,-1 2.3,-3.2 1.3,-4.9 l -2,-3.3 c -0.7,-1.1 -1.9,-1.8 -3.1,-1.8"
         style="fill:#5e87dd;fill-opacity:1;fill-rule:nonzero;stroke:none"
         id="path232" /><path
         d="m 23814.9,5369.1 c -0.6,0 -1.3,0.2 -1.9,0.5 -1.7,1 -2.2,3.2 -1.2,4.9 l 1.9,3.3 c 0.7,1.2 1.9,1.8 3.1,1.8 0.7,0 1.3,-0.2 1.9,-0.5 1.7,-1 2.2,-3.2 1.2,-4.9 l -1.9,-3.3 c -0.7,-1.2 -1.9,-1.8 -3.1,-1.8"
         style="fill:#5e87dd;fill-opacity:1;fill-rule:nonzero;stroke:none"
         id="path234" /><path
         d="m 23798.8,5378.6 c -0.6,0 -1.2,0.1 -1.8,0.5 -1.7,1 -2.3,3.2 -1.3,4.9 l 2,3.3 c 0.7,1.1 1.9,1.8 3.1,1.8 0.6,0 1.3,-0.2 1.8,-0.5 1.7,-1 2.3,-3.3 1.3,-5 l -1.9,-3.3 c -0.7,-1.1 -1.9,-1.7 -3.2,-1.7"
         style="fill:#5e87dd;fill-opacity:1;fill-rule:nonzero;stroke:none"
         id="path236" /><path
         d="m 23782.8,5388.1 c -0.6,0 -1.2,0.1 -1.8,0.4 -1.7,1.1 -2.3,3.3 -1.3,5 l 2,3.3 c 0.6,1.1 1.8,1.8 3.1,1.8 0.6,0 1.2,-0.2 1.8,-0.5 1.7,-1.1 2.3,-3.3 1.3,-5 l -2,-3.3 c -0.7,-1.1 -1.9,-1.7 -3.1,-1.7"
         style="fill:#5e87dd;fill-opacity:1;fill-rule:nonzero;stroke:none"
         id="path238" /><path
         d="m 23766.8,5397.5 c -0.6,0 -1.3,0.2 -1.9,0.5 -1.7,1 -2.2,3.3 -1.2,5 l 1.9,3.3 c 0.7,1.1 1.9,1.7 3.1,1.7 0.7,0 1.3,-0.1 1.9,-0.5 1.7,-1 2.3,-3.2 1.2,-4.9 l -1.9,-3.3 c -0.7,-1.1 -1.9,-1.8 -3.1,-1.8"
         style="fill:#5e87dd;fill-opacity:1;fill-rule:nonzero;stroke:none"
         id="path240" /><path
         d="m 23750.7,5407 c -0.6,0 -1.2,0.2 -1.8,0.5 -1.7,1 -2.3,3.2 -1.3,5 l 2,3.2 c 0.7,1.2 1.9,1.8 3.1,1.8 0.6,0 1.3,-0.2 1.8,-0.5 1.7,-1 2.3,-3.2 1.3,-4.9 l -1.9,-3.3 c -0.7,-1.2 -1.9,-1.8 -3.2,-1.8"
         style="fill:#5e87dd;fill-opacity:1;fill-rule:nonzero;stroke:none"
         id="path242" /><path
         d="m 23734.7,5416.5 c -0.6,0 -1.2,0.1 -1.8,0.5 -1.7,1 -2.3,3.2 -1.3,4.9 l 2,3.3 c 0.6,1.2 1.8,1.8 3.1,1.8 0.6,0 1.2,-0.2 1.8,-0.5 1.7,-1 2.3,-3.2 1.3,-5 l -2,-3.2 c -0.6,-1.2 -1.8,-1.8 -3.1,-1.8"
         style="fill:#5e87dd;fill-opacity:1;fill-rule:nonzero;stroke:none"
         id="path244" /><path
         d="m 23634.2,5372.1 c 10.8,-2 18.9,9.6 13.5,19.1 -5.5,9.5 -13.8,20.5 -25.6,27.3 -24.3,14 -31.5,-30.4 -23.6,-35.4 4.7,-2.9 21.4,-8.5 35.7,-11"
         style="fill:#2b478b;fill-opacity:1;fill-rule:nonzero;stroke:none"
         id="path246" /><path
         d="m 23631.8,5424.9 -29.8,-50.4 c 0,0 -29.7,6 -70.2,28.6 -24.9,13.9 -39.8,26.8 -47.7,34.6 -5,5 -7.1,8 -7.1,8 l 31.3,52.9 c 3,0.4 6.7,-0.2 11,-1.4 35.5,-10 108.4,-67.5 108.4,-67.5 l 4.1,-4.8"
         style="fill:#2b478b;fill-opacity:1;fill-rule:nonzero;stroke:none"
         id="path248" /><path
         d="m 23519.3,5497.2 -35.2,-59.5 c -5,5 -7.1,8 -7.1,8 l 31.3,52.9 c 3,0.4 6.7,-0.2 11,-1.4"
         style="fill:#4a75cb;fill-opacity:1;fill-rule:nonzero;stroke:none"
         id="path250" /><path
         d="m 24198.3,5178.9 c 1.4,0.5 104.5,-22.8 160.5,-63.8 l -70.8,1.1 -91,53.8 c 0,0 -6,6.2 1.3,8.9"
         style="fill:#2b478b;fill-opacity:1;fill-rule:nonzero;stroke:none"
         id="path252" /><path
         d="m 23987.9,5384.1 c 0,0 -63.7,-43.8 -74.8,-49.8 -11.1,-5.9 -28.9,-4.3 -28.9,-4.3 h -0.1 l -109.7,18.5 c 0,0 -116.9,68.3 -142,83.8 -2.3,1.4 -3.8,2.4 -4.5,2.8 -7.3,5.3 -9.8,10.1 -7.3,11.6 2.6,1.4 194.8,-75.1 216.1,-83.7 l 0.6,-0.2 c 20.7,-8.3 24.8,-4 24.8,-4 l 106,29.1 c 1.6,0.8 3.6,0.9 5.7,0.7 6.4,-0.7 14.1,-4.5 14.1,-4.5"
         style="fill:#4a75cb;fill-opacity:1;fill-rule:nonzero;stroke:none"
         id="path254" /><path
         d="m 23973.8,5388.6 c -29,-8.9 -109.1,-33.4 -116.1,-34.3 -7.5,-0.9 -182.3,62.5 -225.3,78 -2.3,1.4 -3.8,2.4 -4.5,2.8 -7.3,5.3 -9.8,10.1 -7.3,11.6 2.6,1.4 194.8,-75.1 216.1,-83.7 21.2,-8.6 25.4,-4.2 25.4,-4.2 l 106,29.1 c 1.6,0.8 3.6,0.9 5.7,0.7"
         style="fill:#4a75cb;fill-opacity:1;fill-rule:nonzero;stroke:none"
         id="path256" /><path
         d="m 23987.9,5384.1 c 0,0 -63.7,-43.8 -74.8,-49.8 -11.1,-5.9 -28.9,-4.3 -28.9,-4.3 h -0.1 c -20.7,11 -36.7,23.7 -46.8,32.8 20.7,-8.3 24.8,-4 24.8,-4 l 106,29.1 c 1.6,0.8 3.6,0.9 5.7,0.7 6.4,-0.7 14.1,-4.5 14.1,-4.5"
         style="fill:#4a75cb;fill-opacity:1;fill-rule:nonzero;stroke:none"
         id="path258" /><path
         d="m 24284.8,5143.9 -275,172.1 c 0,0 142,-46.4 161.1,-41.2 18.1,4.8 215.5,70.8 262.2,64.8 -53.1,-21.4 -177.5,-74.5 -186.1,-103.9 -8.2,-28 22.1,-71.6 37.8,-91.8"
         style="fill:#739af0;fill-opacity:1;fill-rule:nonzero;stroke:none"
         id="path260" /><path
         d="m 21998.1,5217.1 c 1.1,57.8 46,156.5 -42.6,250.2 -62.8,67.3 -118.2,142.9 -144.6,179.9 -9.6,15 -116.8,-73.2 -114.5,-76.8 17.7,-26.1 98.6,-159.2 110.3,-233.4 12.8,-83.7 156.2,-175.3 156.2,-175.3 0,0 34.9,-2.1 35.2,55.4"
         style="fill:#f4a671;fill-opacity:1;fill-rule:nonzero;stroke:none"
         id="path262" /><path
         d="m 22671.2,5205.6 c -141,-7.3 -237.3,211.4 -296.7,214.3 -9.7,0.4 -28.2,-2.3 -52,-5.8 58.4,-95.9 103.1,-208.6 127.9,-332.6 84.5,-421.9 -93.6,-813.4 -397.8,-874.3 -295.8,-59.2 -602,216.2 -696.2,619.7 -2.6,11.3 -5.1,22.7 -7.4,34.2 -24.6,123 -26.9,243.5 -10.2,353.9 l 0.1,1 c -12.8,-3.4 -22.6,-6.3 -28.5,-9.1 -53.7,-25.5 -58.4,-264.4 -191.4,-311.9 -132.9,-47.5 -222.5,207.3 -64.2,405.8 96.5,121 267.6,179.4 386.4,206.5 24.7,40.3 53.1,76.5 84.7,107.7 1.1,1.2 2.3,2.4 3.5,3.6 -87.3,47.2 -153.6,131.4 -174.6,236.3 -7.2,35.5 -8.5,70.9 -4.8,105.1 l -0.9,0.2 c -60,18.1 -108.3,67.9 -121.5,133.7 -19,95 42.6,187.5 137.6,206.4 68.8,13.8 136.3,-14.7 175.5,-67.5 26.4,13 54.9,22.9 85.2,28.9 26.8,5.4 53.6,7.5 79.7,6.6 16.6,62.7 67.4,113.7 135.3,127.3 95,19 187.5,-42.6 206.5,-137.7 12.5,-62.3 -9.8,-123.6 -53.4,-163.7 17.9,-31.4 31.2,-66.2 38.7,-103.6 19.9,-99 -4.8,-196.6 -60.1,-272.1 49.7,-17.1 97.9,-42.7 143.5,-75.6 119.2,22.8 313.9,41.3 458.2,-38 222.5,-122.2 237.9,-391.8 96.9,-399.3"
         style="fill:#2b478b;fill-opacity:1;fill-rule:nonzero;stroke:none"
         id="path264" /><path
         d="m 21356.4,4826.9 c -2.6,11.3 -5.1,22.7 -7.4,34.2 -24.6,123 -26.9,243.5 -10.2,353.9 17.4,20.4 40.7,35.5 67,23 58.2,-27.6 49,-306.4 137.9,-370.8 65.9,-47.7 -98.9,-48.2 -187.3,-40.3"
         style="fill:#233862;fill-opacity:1;fill-rule:nonzero;stroke:none"
         id="path266" /><path
         d="m 21694.4,5659.4 c -33.4,-12.4 -104.7,-34.6 -168.5,-44.4 1.1,1.2 2.3,2.4 3.5,3.6 -87.3,47.2 -153.6,131.4 -174.6,236.3 -7.2,35.5 -8.5,70.9 -4.8,105.1 l -0.9,0.2 c 3.5,1.4 8,-0.7 13.8,-8.9 22.2,-31.5 142,-285.8 331.5,-256.7 0,0 49.5,-16.9 0,-35.2"
         style="fill:#233862;fill-opacity:1;fill-rule:nonzero;stroke:none"
         id="path268" /><path
         d="m 21784.2,6246.2 c 0,0 44.5,82.7 110.4,61.3 65.9,-21.5 75,-116.5 32.1,-142.5 0,0 -63.8,59 -142.5,81.2"
         style="fill:#233862;fill-opacity:1;fill-rule:nonzero;stroke:none"
         id="path270" /><path
         d="m 21474.8,6197.8 c 0,0 -95,43.8 -137.9,-6.8 -42.9,-50.5 42.9,-115 42.9,-115 0,0 41.3,85.7 95,121.8"
         style="fill:#233862;fill-opacity:1;fill-rule:nonzero;stroke:none"
         id="path272" /><path
         d="m 20711.8,4667.2 c -67.1,60.4 -11.9,202.8 -37.4,230.9 -4.2,4.6 -13.8,11.7 -26.2,20.9 -16.8,-69.8 -47.5,-141 -92.3,-208.2 -152.3,-229 -409.5,-325.6 -574.6,-215.8 -160.5,106.7 -174.6,369.5 -35.1,594.5 3.9,6.3 7.9,12.6 12.1,18.8 44.4,66.8 97.8,122.3 155.1,164.7 l 0.5,0.4 c -7.2,4.2 -13,7.4 -16.9,8.8 -16.2,5.7 -47.4,-12.7 -84.3,-31.1 -44.9,-22.4 -98.3,-44.8 -143.1,-23.6 -81.5,38.5 -7,194.2 154.1,212.5 98.3,11.2 202.1,-39.7 268,-81 29.4,7.1 58.6,10.6 87,10.5 1,0 2.1,0 3.2,0 -18.2,60.7 -10.2,128.8 27.7,185.7 12.8,19.3 28.1,35.9 45.2,49.7 l -0.2,0.5 c -19,35.3 -18.4,79.6 5.3,115.3 34.3,51.5 103.9,65.5 155.5,31.2 37.3,-24.8 55,-68.1 48.9,-109.7 17.8,-6.1 35.1,-14.5 51.6,-25.4 14.5,-9.7 27.6,-20.8 39,-33.1 35.8,20.9 81.8,21 118.6,-3.5 51.6,-34.3 65.6,-103.8 31.3,-155.4 -22.5,-33.8 -60.3,-51.5 -98.1,-50 -6.1,-22.3 -15.8,-44 -29.3,-64.3 -35.7,-53.8 -90.9,-86.8 -150,-96 14.8,-30.1 25,-63.4 30.8,-98.9 64.1,-43.5 160.6,-123.1 190,-224.1 45.5,-155.7 -69.3,-284.5 -136.4,-224.3"
         style="fill:#efcdaf;fill-opacity:1;fill-rule:nonzero;stroke:none"
         id="path274" /><path
         d="m 19946.2,5089.5 c 3.9,6.3 7.9,12.6 12.1,18.8 44.4,66.8 97.8,122.3 155.1,164.7 17.1,1.3 34.5,-2.3 40.8,-19.9 13.8,-38.7 -116.2,-160.7 -105.1,-229.9 8.3,-51.3 -66.5,22.8 -102.9,66.3"
         style="fill:#e2b99a;fill-opacity:1;fill-rule:nonzero;stroke:none"
         id="path276" /><path
         d="m 20474.9,5313.4 c -20.7,9.5 -62.9,31.7 -96.2,56.1 1,0 2.1,0 3.2,0 -18.2,60.7 -10.2,128.8 27.7,185.7 12.8,19.3 28.1,35.9 45.2,49.7 l -0.2,0.5 c 2.2,-1 3.2,-4 2.2,-10.3 -4.2,-24.2 -64.8,-193.4 34,-265.7 0,0 14.8,-30 -15.9,-16"
         style="fill:#e2b99a;fill-opacity:1;fill-rule:nonzero;stroke:none"
         id="path278" /><path
         d="m 20780.4,5538.2 c 0,0 57.5,17.4 77.6,-22 20.1,-39.5 -18.6,-86.6 -49.8,-79 0,0 -2.2,55.5 -27.8,101"
         style="fill:#fff3e9;fill-opacity:1;fill-rule:nonzero;stroke:none"
         id="path280" /><path
         d="m 20618.6,5656.1 c 0,0 -23.2,62.7 -65.4,59.2 -42.2,-3.5 -32.5,-71.4 -32.5,-71.4 0,0 57.4,20.1 97.9,12.2"
         style="fill:#fff3e9;fill-opacity:1;fill-rule:nonzero;stroke:none"
         id="path282" /><path
         d="m 19292.4,4701.9 c 0,0 -143.9,185.6 -144.9,337.1 -1,151.4 3.4,201.7 28.7,194.9 25.3,-6.9 139,-91.3 179.9,-175.4 40.9,-84.1 112.7,-304.2 114.2,-334.1 1.5,-30 -177.9,-22.5 -177.9,-22.5"
         style="fill:#afcdfb;fill-opacity:1;fill-rule:nonzero;stroke:none"
         id="path284" /><path
         d="m 19300.3,4761.1 c 0,0 -92,128.3 -95.5,230.7 -3.4,102.4 -1.7,136.3 14,131.2 15.6,-5.1 87.1,-64.4 113.8,-122 26.7,-57.6 75.1,-207.8 76.5,-228.1 1.5,-20.2 -108.8,-11.8 -108.8,-11.8"
         style="fill:#e57970;fill-opacity:1;fill-rule:nonzero;stroke:none"
         id="path286" /><path
         d="m 19524.7,4779.4 c 0,0 -69,251.3 -41.8,319.8 27.3,68.4 168.7,22.7 184.7,-25.6 16.1,-48.2 6.2,-251.9 6.2,-251.9 l -149.1,-42.3"
         style="fill:#afcdfb;fill-opacity:1;fill-rule:nonzero;stroke:none"
         id="path288" /><path
         d="m 19543.1,5068.4 c 0,0 -10,-199.3 24.8,-276.8 l 67,19 c 0,0 10.4,222.5 1.4,237.5 -8.9,15 -93.2,20.3 -93.2,20.3"
         style="fill:#e57970;fill-opacity:1;fill-rule:nonzero;stroke:none"
         id="path290" /><path
         d="m 19479,5084.9 c 0,0 232.2,-153.6 250.9,-137.4 18.7,16.2 -51.9,172.1 -79.2,186.1 -27.4,14 -173.3,42.8 -171.7,-48.7"
         style="fill:#afcdfb;fill-opacity:1;fill-rule:nonzero;stroke:none"
         id="path292" /><path
         d="m 19052.1,2277.1 h 3164.3 v 2609.2 h -3164.3 z"
         style="fill:#3a853d;fill-opacity:1;fill-rule:nonzero;stroke:none"
         id="path294" /><path
         d="m 20634.3,2277.1 h 3164.3 v 2609.2 h -3164.3 z"
         style="fill:#4caf50;fill-opacity:1;fill-rule:nonzero;stroke:none"
         id="path296" /><path
         d="m 20634.3,3868.3 v 1018 h 3164.3 v -828.5 l -3164.3,-189.5"
         style="fill:#449e48;fill-opacity:1;fill-rule:nonzero;stroke:none"
         id="path298" /><path
         d="m 20634.3,4886.3 626.1,-686.5 h 3122.4 l -584.2,686.5 h -3164.3"
         style="fill:#4caf50;fill-opacity:1;fill-rule:nonzero;stroke:none"
         id="path300" /><path
         d="m 19054,2938.8 h 501.4 l -44.2,141.1 44.2,100.8 H 19054 v -241.9"
         style="fill:#f1a34f;fill-opacity:1;fill-rule:nonzero;stroke:none"
         id="path302" /><path
         d="m 23798.6,2491.4 h 0.699 v 241.898 h -0.699 z"
         style="fill:#e3bb9e;fill-opacity:1;fill-rule:nonzero;stroke:none"
         id="path304" /><path
         d="m 23798.6,2491.4 h -500.8 l 44.2,141.1 -44.2,100.8 h 500.8 v -241.9"
         style="fill:#449e48;fill-opacity:1;fill-rule:nonzero;stroke:none"
         id="path306" /><path
         d="m 20634.3,4591.4 -667,-667 H 19054 v 961.9 h 1580.3 v -294.9"
         style="fill:#327035;fill-opacity:1;fill-rule:nonzero;stroke:none"
         id="path308" /><path
         d="m 19052.1,4886.3 -711.4,-686.5 h 1583.1 l 710.5,686.5 h -1582.2"
         style="fill:#4caf50;fill-opacity:1;fill-rule:nonzero;stroke:none"
         id="path310" /><path
         d="m 18270.8,2964.5 -57.6,-11.2 c -68.4,-13.3 -135.2,31.8 -148.4,100.2 l -84.8,436.2 c -12.1,62.4 24.2,123.3 82.5,143.7 -0.5,1.5 -1,3 -1.3,4.6 l -5,25.7 c -3.4,17.8 8.3,35.1 26.1,38.6 l 25.7,5 c 17.8,3.4 35.2,-8.3 38.6,-26.1 l 5,-25.7 c 0.2,-1.1 0.4,-2.4 0.5,-3.6 v -0.6 c 63.2,4.9 121.8,-38.5 134.2,-102 l 84.7,-436.4 c 13.3,-68.3 -31.8,-135.1 -100.2,-148.4"
         style="fill:#caddff;fill-opacity:1;fill-rule:nonzero;stroke:none"
         id="path312" /><path
         d="m 18291.1,3524.4 58.2,-299.9 -306.2,-59.4 -58.2,299.8 306.2,59.5"
         style="fill:#2b478b;fill-opacity:1;fill-rule:nonzero;stroke:none"
         id="path314" /><path
         d="m 18152.1,3651.9 -89.6,-18.5 c -0.5,1.5 -1,3 -1.3,4.6 l -5,25.7 c -3.4,17.8 8.3,35.1 26.1,38.6 l 25.7,5 c 17.8,3.4 35.2,-8.3 38.6,-26.1 l 5,-25.7 c 0.2,-1.1 0.4,-2.4 0.5,-3.6"
         style="fill:#4a75cb;fill-opacity:1;fill-rule:nonzero;stroke:none"
         id="path316" /><path
         d="m 19823.5,3762 c 0,0 -38,-53.4 -72.7,-54.1 -34.8,-0.7 -87.7,24.8 -87.7,24.8 0,0 -32,71.1 -10.3,99 0,0 21.7,9.5 44.4,-7.3 3.9,-2.9 7.9,-6.6 11.8,-11.3 5.5,-6.6 11.7,-10.4 18.2,-12.4 24.9,-7.5 54.3,10.2 65.3,-6.9 6.5,-10 13.5,-17.5 19.2,-22.7 6.8,-6.1 11.8,-9.1 11.8,-9.1"
         style="fill:#f9ddbf;fill-opacity:1;fill-rule:nonzero;stroke:none"
         id="path318" /><path
         d="m 19328.9,3376.8 c 0,0 134.1,324.9 375.4,331.1 0,0 222.8,-24.8 235.2,-331.1 h -610.6"
         style="fill:#f9ddbf;fill-opacity:1;fill-rule:nonzero;stroke:none"
         id="path320" /><path
         d="m 19638.2,3698 c 0,0 96.8,-21.5 126.6,-8.9 0,0 4.5,40.5 -36.2,34.8 -27.9,-3.9 -46.1,9.5 -56.8,14.9 -15.1,7.7 -37.6,-23.9 -33.6,-40.8"
         style="fill:#f1a34f;fill-opacity:1;fill-rule:nonzero;stroke:none"
         id="path322" /><path
         d="m 19722.4,3759 c -6.2,-4.7 -25.2,65.4 -25.2,65.4 3.9,-2.9 7.9,-6.6 11.8,-11.3 5.5,-6.6 11.7,-10.4 18.2,-12.4 0.1,-2 1.2,-37.2 -4.8,-41.7"
         style="fill:#e5c1a1;fill-opacity:1;fill-rule:nonzero;stroke:none"
         id="path324" /><path
         d="m 19811.7,3771.1 c -1.3,-0.8 -46.1,-27.6 -52.2,-27.6 -6.1,0 33,50.3 33,50.3 6.5,-10 13.5,-17.5 19.2,-22.7"
         style="fill:#e5c1a1;fill-opacity:1;fill-rule:nonzero;stroke:none"
         id="path326" /><path
         d="m 19459.9,3467.6 c -2.5,2.1 94.9,143.3 121.7,144.4 26.8,1 87.1,-31 130.7,-35.1 43.6,-4.1 85.9,8.2 94.2,-17.5 8.2,-25.8 30.9,-117.3 17,-131.9 -13.9,-14.6 -310.1,-5.7 -363.6,40.1"
         style="fill:#e5c1a1;fill-opacity:1;fill-rule:nonzero;stroke:none"
         id="path328" /><path
         d="m 18329.8,3247.9 c -3.7,-7.3 -9.1,-13.1 -15.4,-17.4 -3.6,-2.3 -7.4,-4.2 -11.4,-5.5 -11.3,-3.7 -23.8,-3.1 -35.1,2.7 l -601.3,305.4 c -22.6,11.5 -31.7,39.3 -20.2,61.9 5.7,11.3 15.5,19.2 26.8,22.9 11.2,3.7 23.8,3.1 35.1,-2.7 l 601.3,-305.4 c 22.5,-11.5 31.6,-39.3 20.2,-61.9"
         style="fill:#e57970;fill-opacity:1;fill-rule:nonzero;stroke:none"
         id="path330" /><path
         d="m 17866,3431.8 -37.9,122.6 -96.9,49.2 58.4,-133 76.4,-38.8"
         style="fill:#b64c41;fill-opacity:1;fill-rule:nonzero;stroke:none"
         id="path332" /><path
         d="m 18012.8,3357.2 -76.4,38.8 -58.3,133 96.8,-49.2 37.9,-122.6"
         style="fill:#b64c41;fill-opacity:1;fill-rule:nonzero;stroke:none"
         id="path334" /><path
         d="m 18159.5,3282.7 -76.4,38.8 -58.3,132.9 96.8,-49.2 37.9,-122.5"
         style="fill:#b64c41;fill-opacity:1;fill-rule:nonzero;stroke:none"
         id="path336" /><path
         d="m 18314.4,3230.5 c -3.6,-2.3 -7.4,-4.2 -11.4,-5.5 -11.3,-3.7 -23.8,-3.1 -35.1,2.7 l -35.3,17.9 -58.4,132.9 96.8,-49.2 43.4,-98.8"
         style="fill:#b64c41;fill-opacity:1;fill-rule:nonzero;stroke:none"
         id="path338" /><path
         d="m 17646.4,3595 c 0,0 -12.2,65.4 -65.3,84.8 0,0 6.3,-7.5 -19.3,-15.7 -25.5,-8.1 -18.1,-25.7 -27.2,-33.7 0,0 36.9,-48.9 111.8,-35.4"
         style="fill:#b64c41;fill-opacity:1;fill-rule:nonzero;stroke:none"
         id="path340" /><path
         d="m 17636.1,3586.4 -1.4,0.7 c -4.1,2.1 -5.7,7.1 -3.7,11.2 l 7.5,14.7 c 2.1,4.1 7.1,5.7 11.2,3.7 l 1.4,-0.8 c 4.1,-2 5.7,-7 3.6,-11.1 l -7.5,-14.7 c -2,-4.1 -7.1,-5.8 -11.1,-3.7"
         style="fill:#4a75cb;fill-opacity:1;fill-rule:nonzero;stroke:none"
         id="path342" /><path
         d="m 18327.3,3249.1 c 0,0 59.9,28.8 106.9,-2.6 0,0 -9.8,0.5 -1.3,-24.9 8.5,-25.4 -10.1,-29.8 -11.2,-41.9 0,0 -61.2,0.9 -94.4,69.4"
         style="fill:#b64c41;fill-opacity:1;fill-rule:nonzero;stroke:none"
         id="path344" /><path
         d="m 18326.4,3235.7 1.4,-0.7 c 4,-2 9.1,-0.4 11.1,3.7 l 7.5,14.7 c 2.1,4.1 0.4,9.1 -3.6,11.2 l -1.4,0.7 c -4.1,2 -9.1,0.4 -11.2,-3.7 l -7.5,-14.7 c -2,-4.1 -0.4,-9.1 3.7,-11.2"
         style="fill:#4a75cb;fill-opacity:1;fill-rule:nonzero;stroke:none"
         id="path346" /><path
         d="m 19108.1,3243.1 c -7.1,-4 -14.7,-6 -22.3,-6.1 -4.3,-0.1 -8.5,0.5 -12.6,1.6 -11.5,3 -21.7,10.4 -28,21.3 l -337.8,583.8 c -12.7,21.9 -5.1,50.2 16.8,62.9 11,6.3 23.5,7.6 34.9,4.6 11.4,-3.1 21.7,-10.4 28,-21.4 l 337.8,-583.8 c 12.7,-21.9 5.1,-50.2 -16.8,-62.9"
         style="fill:#f1a34f;fill-opacity:1;fill-rule:nonzero;stroke:none"
         id="path348" /><path
         d="m 18819.4,3650.1 35,123.4 -54.4,94 -23.5,-143.2 42.9,-74.2"
         style="fill:#f9ddbf;fill-opacity:1;fill-rule:nonzero;stroke:none"
         id="path350" /><path
         d="m 18901.9,3507.6 -42.9,74.1 23.5,143.3 54.4,-94 -35,-123.4"
         style="fill:#f9ddbf;fill-opacity:1;fill-rule:nonzero;stroke:none"
         id="path352" /><path
         d="m 18984.3,3365.1 -42.9,74.2 23.5,143.3 54.4,-94.1 -35,-123.4"
         style="fill:#f9ddbf;fill-opacity:1;fill-rule:nonzero;stroke:none"
         id="path354" /><path
         d="m 19085.8,3237 c -4.3,-0.1 -8.5,0.5 -12.6,1.6 -11.5,3 -21.7,10.4 -28,21.3 l -19.8,34.3 23.4,143.3 54.4,-94 -17.4,-106.5"
         style="fill:#f9ddbf;fill-opacity:1;fill-rule:nonzero;stroke:none"
         id="path356" /><path
         d="m 18724.2,3906.6 c 0,0 25.4,61.4 -8.5,106.6 0,0 1.1,-9.7 -24.7,-2.6 -25.9,7.1 -29.3,-11.7 -41.2,-13.4 0,0 4.2,-61.2 74.4,-90.6"
         style="fill:#f1a34f;fill-opacity:1;fill-rule:nonzero;stroke:none"
         id="path358" /><path
         d="m 18710.9,3905 -0.8,1.4 c -2.3,3.9 -0.9,9 3,11.3 l 14.3,8.3 c 4,2.3 9.1,0.9 11.4,-3.1 l 0.8,-1.3 c 2.2,-4 0.9,-9.1 -3.1,-11.4 l -14.3,-8.2 c -3.9,-2.3 -9,-1 -11.3,3"
         style="fill:#3a853d;fill-opacity:1;fill-rule:nonzero;stroke:none"
         id="path360" /><path
         d="m 19106.7,3245.6 c 0,0 65.9,-8.6 88.2,-60.6 0,0 -7.9,5.9 -14.6,-20.1 -6.7,-25.9 -24.8,-19.5 -32.2,-29 0,0 -50.9,34.1 -41.4,109.7"
         style="fill:#f1a34f;fill-opacity:1;fill-rule:nonzero;stroke:none"
         id="path362" /><path
         d="m 19098.6,3234.8 0.8,-1.3 c 2.3,-4 7.4,-5.4 11.4,-3.1 l 14.3,8.3 c 3.9,2.3 5.3,7.4 3,11.3 l -0.8,1.4 c -2.3,4 -7.4,5.3 -11.3,3 l -14.3,-8.2 c -4,-2.3 -5.4,-7.4 -3.1,-11.4"
         style="fill:#3a853d;fill-opacity:1;fill-rule:nonzero;stroke:none"
         id="path364" /><path
         d="m 18015,3079.4 c -7.1,3.8 -12.9,9.2 -17.1,15.6 -2.3,3.6 -4,7.5 -5.3,11.5 -3.5,11.3 -2.7,23.9 3.2,35.1 l 315.1,596.3 c 11.9,22.4 39.9,31 62.3,19.2 11.2,-5.9 18.9,-15.9 22.4,-27.2 3.5,-11.3 2.7,-23.8 -3.2,-35 l -315.1,-596.3 c -11.9,-22.4 -39.9,-31.1 -62.3,-19.2"
         style="fill:#4a75cb;fill-opacity:1;fill-rule:nonzero;stroke:none"
         id="path366" /><path
         d="m 18206.5,3540.2 123.1,35.9 50.7,96 -133.8,-56.2 -40,-75.7"
         style="fill:#699ff0;fill-opacity:1;fill-rule:nonzero;stroke:none"
         id="path368" /><path
         d="m 18129.5,3394.5 40,75.8 133.9,56.2 -50.8,-96 -123.1,-36"
         style="fill:#699ff0;fill-opacity:1;fill-rule:nonzero;stroke:none"
         id="path370" /><path
         d="m 18052.6,3249 40.1,75.8 133.8,56.2 -50.8,-96 -123.1,-36"
         style="fill:#699ff0;fill-opacity:1;fill-rule:nonzero;stroke:none"
         id="path372" /><path
         d="m 17997.9,3095 c -2.3,3.6 -4,7.5 -5.3,11.5 -3.5,11.3 -2.7,23.9 3.2,35.1 l 18.5,35 133.9,56.2 -50.8,-96 -99.5,-41.8"
         style="fill:#699ff0;fill-opacity:1;fill-rule:nonzero;stroke:none"
         id="path374" /><path
         d="m 18373.2,3757.1 c 0,0 65.5,11.1 85.8,63.9 0,0 -7.7,-6.2 -15.4,19.5 -7.7,25.7 -25.4,18.5 -33.3,27.8 0,0 -49.5,-36.1 -37.1,-111.2"
         style="fill:#699ff0;fill-opacity:1;fill-rule:nonzero;stroke:none"
         id="path376" /><path
         d="m 18364.7,3767.5 0.7,1.4 c 2.2,4.1 7.2,5.6 11.3,3.5 l 14.6,-7.7 c 4,-2.2 5.6,-7.2 3.4,-11.3 l -0.7,-1.4 c -2.1,-4 -7.2,-5.5 -11.2,-3.4 l -14.6,7.7 c -4.1,2.1 -5.6,7.2 -3.5,11.2"
         style="fill:#4a75cb;fill-opacity:1;fill-rule:nonzero;stroke:none"
         id="path378" /><path
         d="m 18016.4,3081.9 c 0,0 27.7,-60.4 -4.5,-106.9 0,0 0.8,9.7 -24.8,1.7 -25.5,-8.1 -29.6,10.6 -41.7,11.8 0,0 1.9,61.3 71,93.4"
         style="fill:#4a75cb;fill-opacity:1;fill-rule:nonzero;stroke:none"
         id="path380" /><path
         d="m 18003,3083 -0.8,-1.4 c -2.1,-4.1 -0.5,-9.1 3.5,-11.2 l 14.6,-7.8 c 4,-2.1 9.1,-0.5 11.2,3.5 l 0.8,1.4 c 2.1,4 0.5,9.1 -3.5,11.2 l -14.6,7.7 c -4.1,2.2 -9.1,0.6 -11.2,-3.4"
         style="fill:#4a75cb;fill-opacity:1;fill-rule:nonzero;stroke:none"
         id="path382" /><path
         d="m 18644.6,3621.4 c 0,0 27.5,-38.8 52.8,-39.3 25.2,-0.6 63.6,17.9 63.6,17.9 0,0 23.2,51.7 7.5,71.9 0,0 -15.8,6.9 -32.3,-5.3 -2.8,-2.1 -5.7,-4.7 -8.5,-8.2 -4,-4.8 -8.5,-7.5 -13.3,-8.9 -18,-5.5 -39.4,7.4 -47.3,-5.1 -4.7,-7.2 -9.8,-12.6 -14,-16.5 -4.9,-4.4 -8.5,-6.5 -8.5,-6.5"
         style="fill:#b64c41;fill-opacity:1;fill-rule:nonzero;stroke:none"
         id="path384" /><path
         d="m 19003.6,3341.8 c 0,0 -97.4,235.8 -272.5,240.3 0,0 -161.7,-18 -170.7,-240.3 h 443.2"
         style="fill:#b64c41;fill-opacity:1;fill-rule:nonzero;stroke:none"
         id="path386" /><path
         d="m 18779,3574.9 c 0,0 -70.2,-15.6 -91.8,-6.5 0,0 -3.3,29.4 26.3,25.3 20.2,-2.8 33.4,6.9 41.1,10.8 11,5.6 27.4,-17.3 24.4,-29.6"
         style="fill:#963333;fill-opacity:1;fill-rule:nonzero;stroke:none"
         id="path388" /><path
         d="m 18717.9,3619.1 c 4.5,-3.3 18.3,47.5 18.3,47.5 -2.8,-2.1 -5.7,-4.7 -8.5,-8.2 -4,-4.8 -8.5,-7.5 -13.3,-8.9 0,-1.5 -0.8,-27.1 3.5,-30.4"
         style="fill:#963333;fill-opacity:1;fill-rule:nonzero;stroke:none"
         id="path390" /><path
         d="m 18653.1,3627.9 c 1,-0.5 33.5,-20 37.9,-20 4.5,0 -23.9,36.5 -23.9,36.5 -4.7,-7.2 -9.8,-12.6 -14,-16.5"
         style="fill:#963333;fill-opacity:1;fill-rule:nonzero;stroke:none"
         id="path392" /><path
         d="m 18908.5,3407.7 c 1.8,1.5 -68.9,104 -88.4,104.8 -19.4,0.7 -63.2,-22.5 -94.8,-25.5 -31.7,-3 -62.4,6 -68.4,-12.7 -5.9,-18.7 -22.4,-85.1 -12.3,-95.7 10.1,-10.6 225,-4.1 263.9,29.1"
         style="fill:#963333;fill-opacity:1;fill-rule:nonzero;stroke:none"
         id="path394" /><path
         d="m 19342.3,3608.8 h 0.1 c -29,-0.4 -43.5,43.4 -43.5,43.4 l -282.3,-85.4 c 12.7,-31 -7.8,-54.8 -7.8,-54.8 0,0 -48.8,-32.6 -33.6,-82.7 l 62.4,-206.4 c 11.1,-36.5 50.1,-57.4 86.6,-46.3 l 297.7,90.1 c 36.6,11.1 57.4,50 46.4,86.6 l -62.5,206.3 c -8.7,28.9 -34.9,47.9 -63.5,49.2"
         style="fill:#caddff;fill-opacity:1;fill-rule:nonzero;stroke:none"
         id="path396" /><path
         d="m 18988.4,3575.9 17,-56 c 6.1,-20.2 83.4,-14.7 172.6,12.3 89.2,27 156.6,65.3 150.5,85.5 l -17,56 -323.1,-97.8"
         style="fill:#963333;fill-opacity:1;fill-rule:nonzero;stroke:none"
         id="path398" /><path
         d="m 19311.5,3673.7 c 6.2,-20.2 -61.2,-58.5 -150.4,-85.5 -89.3,-27.1 -166.6,-32.5 -172.7,-12.3 -6.1,20.2 61.2,58.6 150.5,85.6 89.2,27 166.5,32.5 172.6,12.2"
         style="fill:#b64c41;fill-opacity:1;fill-rule:nonzero;stroke:none"
         id="path400" /><path
         d="m 18585.1,3496.7 v 0 c -20.2,9.8 -15.1,45.2 -15.1,45.2 l -225.6,38.6 c -2,-25.8 -24.4,-35.3 -24.4,-35.3 0,0 -45.2,-5.7 -52.1,-45.8 l -28.2,-164.9 c -5,-29.2 14.8,-57.2 44,-62.2 l 238,-40.7 c 29.2,-5 57.2,14.8 62.2,44 l 28.2,165 c 4,23 -7.6,45.3 -27,56.1"
         style="fill:#b7d2f9;fill-opacity:1;fill-rule:nonzero;stroke:none"
         id="path402" /><path
         d="m 18328,3596.7 -7.7,-44.8 c -2.8,-16.2 52.8,-39.2 124.1,-51.4 71.4,-12.2 131.4,-9 134.2,7.2 l 7.7,44.8 -258.3,44.2"
         style="fill:#327035;fill-opacity:1;fill-rule:nonzero;stroke:none"
         id="path404" /><path
         d="m 18586.3,3552.5 c -2.8,-16.2 -62.9,-19.4 -134.2,-7.2 -71.3,12.2 -126.9,35.2 -124.1,51.4 2.7,16.1 62.8,19.4 134.1,7.2 71.3,-12.2 126.9,-35.2 124.2,-51.4"
         style="fill:#f1a34f;fill-opacity:1;fill-rule:nonzero;stroke:none"
         id="path406" /><path
         d="M 17866.2,2277.1 H 19264 V 3429.8 H 17866.2 V 2277.1"
         style="fill:#3a853d;fill-opacity:1;fill-rule:nonzero;stroke:none"
         id="path408" /><path
         d="M 18565.1,2277.1 H 19963 V 3429.8 H 18565.1 V 2277.1"
         style="fill:#4caf50;fill-opacity:1;fill-rule:nonzero;stroke:none"
         id="path410" /><path
         d="m 18565.1,3429.8 h 1401.5 v -401.5 l -1401.5,-174.8 v 576.3"
         style="fill:#3c8c40;fill-opacity:1;fill-rule:nonzero;stroke:none"
         id="path412" /><path
         d="m 18565.1,3429.8 276.6,-303.3 h 1379.4 l -258.1,303.3 h -1397.9"
         style="fill:#4caf50;fill-opacity:1;fill-rule:nonzero;stroke:none"
         id="path414" /><path
         d="m 17867,2569.5 h 221.5 l -19.5,62.3 19.5,44.5 H 17867 v -106.8"
         style="fill:#4caf50;fill-opacity:1;fill-rule:nonzero;stroke:none"
         id="path416" /><path
         d="m 18565.1,3299.5 -294.7,-294.7 H 17867 v 425 h 698.1 v -130.3"
         style="fill:#327035;fill-opacity:1;fill-rule:nonzero;stroke:none"
         id="path418" /><path
         d="m 17866.2,3429.8 -314.3,-303.3 h 699.3 l 313.9,303.3 h -698.9"
         style="fill:#4caf50;fill-opacity:1;fill-rule:nonzero;stroke:none"
         id="path420" /><path
         d="M 16150.7,8698.5 C 14740.4,8959.3 13910.3,7291.4 13767.6,7084.9 13625,7291.4 12794.8,8959.3 11384.6,8698.5 9829.16,8410.8 9160.29,6943.7 9747.95,5511.7 10226.8,4344.9 13320.4,2476.3 13745.5,2253.9 V 2231 c 0,0 7.7,3.9 22.1,11.4 14.4,-7.5 22.1,-11.4 22.1,-11.4 v 22.9 c 425.1,222.4 3469.8,2112.3 3997.6,3257.8 589.1,1278.5 -81.2,2899.1 -1636.6,3186.8"
         style="fill:#f77d48;fill-opacity:1;fill-rule:nonzero;stroke:none"
         id="path422" /><path
         d="m 11809.7,5385.1 c -25.4,-62 -193.4,-45.1 -323,43.2 -128.6,87.3 -313.6,168.1 -418.8,241.3 -78.8,53.5 -160.5,256.3 -222.5,381.2 -15.9,31.9 -31,59.2 -43.2,77 -76,22.5 -71.3,101.4 -141.8,126.8 -83.5,29.1 -58.2,76 -58.2,76 0,0 60.1,25.4 133.4,17.8 26.2,-3.7 78.8,-79.8 109.8,-127.6 29.1,-21.6 63.9,-50.8 101.4,-84.6 101.4,-90.1 216,-206.5 262,-263.8 53.5,-66.7 400,-139.9 493.9,-216.9 167.1,-137.1 107,-270.4 107,-270.4"
         style="fill:#ed985f;fill-opacity:1;fill-rule:nonzero;stroke:none"
         id="path424" /><path
         d="m 11209.8,4431.4 363.3,-2016.7 125.8,-8.3 c 0,0 98.9,878.3 14.2,1181.4 -84.7,303.2 146.2,686.6 81.3,949.6 -64.9,263 -584.6,-106 -584.6,-106"
         style="fill:#ed985f;fill-opacity:1;fill-rule:nonzero;stroke:none"
         id="path426" /><path
         d="m 11627.7,5545.5 -317.2,51.6 c -15.1,51.5 -19.4,122.3 -19.6,184.9 -0.2,77.8 5.9,142.9 5.9,142.9 l 256,24.6 113.7,11 c -62.4,-119 -38.8,-415 -38.8,-415"
         style="fill:#ffb27d;fill-opacity:1;fill-rule:nonzero;stroke:none"
         id="path428" /><path
         d="m 11637.2,5898 c 0,0 -169.5,-144.5 -346.3,-116 -0.2,77.8 5.9,142.9 5.9,142.9 l 256,24.6 84.4,-51.5"
         style="fill:#ed985f;fill-opacity:1;fill-rule:nonzero;stroke:none"
         id="path430" /><path
         d="m 11451.7,3934.6 c -64.3,-178.6 -122,-360.6 -93,-509.8 8.5,-44.1 13.8,-89.7 16.3,-136.2 2.4,-42.7 2.5,-86.1 0.8,-129.6 -14.2,-351.6 -148.1,-710 -168.8,-763.5 -1.7,-4.5 -2.6,-6.8 -2.6,-6.8 l -111.4,11.8 -47.9,2116.1 c 0,0 508.5,205.4 536.9,-63.9 14.6,-139.3 -61.6,-326.8 -130.3,-518.1"
         style="fill:#ffb27d;fill-opacity:1;fill-rule:nonzero;stroke:none"
         id="path432" /><path
         d="m 11755.6,3814.7 c 0,0 -32.4,-4.7 -80.7,-9.9 -90.6,-10 -236.6,-21.7 -326.9,-7.8 -43,6.5 -67.1,77.6 -78.4,173 -25.2,211.4 12.4,542.4 46.5,557.1 49.7,21.2 488.9,3.2 488.9,3.2 0,0 95.9,-237.1 -49.4,-715.6"
         style="fill:#35488b;fill-opacity:1;fill-rule:nonzero;stroke:none"
         id="path434" /><path
         d="m 11682,3804.8 c -90.6,-10 -236.6,-21.7 -326.9,-7.8 -43,6.5 -67.1,77.6 -78.4,173 l 240.8,394 180.7,70.9 c 0,0 72.6,-302.1 -16.2,-630.1"
         style="fill:#2c3a64;fill-opacity:1;fill-rule:nonzero;stroke:none"
         id="path436" /><path
         d="m 11043.2,4523.5 c 0,0 -94.5,-418.2 -80.3,-749 0,0 215,-42.5 434.7,0 0,0 363.9,529.3 333.2,699.4 -30.7,170.1 -595.4,104 -687.6,49.6"
         style="fill:#35488b;fill-opacity:1;fill-rule:nonzero;stroke:none"
         id="path438" /><path
         d="m 11216,5975.8 c 0,0 295.8,-234.4 438.9,-48 143.2,186.4 277.8,281.7 95,439.2 -182.7,157.6 -274.5,115 -337.4,64.4 -62.9,-50.6 -269.7,-389.8 -196.5,-455.6"
         style="fill:#ffb27d;fill-opacity:1;fill-rule:nonzero;stroke:none"
         id="path440" /><path
         d="m 11959.9,6297 c 0,0 -16.4,5.3 -35.3,-0.4 v 0.4 c 23.9,44.1 6,112.6 6,112.6 5.9,-37.6 -27.9,-81.7 -27.9,-81.7 -2,139.1 -346,225.2 -377.8,234 -31.8,8.8 -27.8,61.8 -27.8,61.8 -65.7,-13.2 -135.3,-97.1 -133.3,-178.8 2,-81.7 69.6,-238.4 113.4,-240.6 43.7,-2.3 23.8,-37.6 -6,-86.1 -29.8,-48.6 8.9,-180.5 62.6,-226.9 43.3,-37.3 66,-6.1 91.3,7.7 6.3,3.4 13,6 20,7.6 100.3,22.4 204.7,121.5 256.6,248 20.7,50.2 23.5,100.6 23.5,125.8 8.5,5 25.1,14.2 34.7,16.6"
         style="fill:#2c3a64;fill-opacity:1;fill-rule:nonzero;stroke:none"
         id="path442" /><path
         d="m 11716,2267.3 h -70.3 c -23.5,3.3 -40.9,9.3 -65,12.1 -36.6,4.2 -53.5,-9.1 -56.8,-12.1 l -0.7,-0.6 h -298.3 c -7.5,9.4 -0.3,31.4 6.7,47.5 4.8,11 15.1,19.3 28,22.6 31.6,8.1 94,15.3 151.1,61.1 32.1,25.6 155.1,94.4 155.1,94.4 l 0.7,0.1 c 2.7,0 15.6,-3.5 71.5,-45.3 29,-21.6 78.3,30.4 78.3,30.4 0,0 9.2,-6.7 16.1,-19.3 5.6,-10 9.7,-23.7 6.4,-40.5 -4.4,-23.8 10,-68 21.4,-97.9 7,-18.1 12.8,-30.9 12.8,-30.9 0,0 3.4,-14.9 -57,-21.6"
         style="fill:#739cf3;fill-opacity:1;fill-rule:nonzero;stroke:none"
         id="path444" /><path
         d="m 11732.4,2458.2 c -16.7,-10.5 -52.1,-31.1 -75.6,-33.8 -31.7,-3.7 -91,67.9 -91,67.9 l 0.7,0.1 c 2.7,0 15.6,-3.5 71.5,-45.3 29,-21.6 78.3,30.4 78.3,30.4 0,0 9.2,-6.7 16.1,-19.3"
         style="fill:#415da5;fill-opacity:1;fill-rule:nonzero;stroke:none"
         id="path446" /><path
         d="m 11716,2267.3 h -70.3 c -23.5,3.3 -40.9,9.3 -65,12.1 -36.6,4.2 -53.5,-9.1 -56.8,-12.1 l -0.7,-0.6 h -298.3 c -7.5,9.4 -0.3,31.4 6.7,47.5 9.1,7.2 11.6,-30.9 16.6,-37 5,-6 243.4,-2.2 257.2,6.7 13.7,8.8 55,24.3 112.6,12.1 50.1,-10.5 123.9,16.6 142.2,23.8 7,-18.1 12.8,-30.9 12.8,-30.9 0,0 3.4,-14.9 -57,-21.6"
         style="fill:#415da5;fill-opacity:1;fill-rule:nonzero;stroke:none"
         id="path448" /><path
         d="m 11236,2267.3 h -70.2 c -23.6,3.3 -40.9,9.3 -65.1,12.1 -36.6,4.2 -53.5,-9.1 -56.8,-12.1 l -0.7,-0.6 h -298.3 c -7.5,9.4 -0.3,31.4 6.7,47.5 4.8,11 15.2,19.3 28,22.6 31.6,8.1 94,15.3 151.1,61.1 32.1,25.6 155.2,94.4 155.2,94.4 l 0.6,0.1 c 2.7,0 15.6,-3.5 71.6,-45.3 28.9,-21.6 78.2,30.4 78.2,30.4 0,0 9.3,-6.7 16.2,-19.3 5.5,-10 9.6,-23.7 6.4,-40.5 -4.5,-23.8 9.9,-68 21.3,-97.9 7,-18.1 12.9,-30.9 12.9,-30.9 0,0 3.3,-14.9 -57.1,-21.6"
         style="fill:#739cf3;fill-opacity:1;fill-rule:nonzero;stroke:none"
         id="path450" /><path
         d="m 11252.5,2458.2 c -16.8,-10.5 -52.2,-31.1 -75.7,-33.8 -31.7,-3.7 -90.9,67.9 -90.9,67.9 l 0.6,0.1 c 2.7,0 15.6,-3.5 71.6,-45.3 28.9,-21.6 78.2,30.4 78.2,30.4 0,0 9.3,-6.7 16.2,-19.3"
         style="fill:#415da5;fill-opacity:1;fill-rule:nonzero;stroke:none"
         id="path452" /><path
         d="m 11236,2267.3 h -70.2 c -23.6,3.3 -40.9,9.3 -65.1,12.1 -36.6,4.2 -53.5,-9.1 -56.8,-12.1 l -0.7,-0.6 h -298.3 c -7.5,9.4 -0.3,31.4 6.7,47.5 9.1,7.2 11.7,-30.9 16.7,-37 5,-6 243.3,-2.2 257.1,6.7 13.8,8.8 55.1,24.3 112.6,12.1 50.1,-10.5 124,16.6 142.2,23.8 7,-18.1 12.9,-30.9 12.9,-30.9 0,0 3.3,-14.9 -57.1,-21.6"
         style="fill:#415da5;fill-opacity:1;fill-rule:nonzero;stroke:none"
         id="path454" /><path
         d="m 11866.6,4434.9 c 0,0 -284.3,-82.7 -630.3,-23.8 -63.2,10.7 -174.2,42.3 -252.7,86.4 l 104.3,829.2 21.5,385.4 c 0,0 119.3,36.6 177.2,40.1 0,0 242.2,-28.9 336.1,-4.1 0,0 134.6,-27.8 173.2,-154.5 80.2,-263.5 107.1,-590.6 70.7,-1158.7"
         style="fill:#ffffff;fill-opacity:1;fill-rule:nonzero;stroke:none"
         id="path456" /><path
         d="m 11305.5,5385.1 c -26.3,-62 -194.4,-45.1 -323,43.2 -11.3,7.5 -22.5,15 -34.7,22.5 -125.9,78.9 -289.2,152.1 -385,218.8 -90.1,62 -185,320.2 -248.8,431 -5.7,10.3 -11.3,19.7 -16.9,27.2 -75.1,23.5 -70.4,101.4 -140.9,126.8 -83.5,29.1 -59.1,76 -59.1,76 0,0 61,25.3 133.3,17.8 27.2,-3.7 79.8,-79.8 109.9,-127.6 20.6,-16 46,-35.7 72.3,-57.3 107,-93 241.3,-228.2 291,-291.1 38.5,-47.9 228.2,-99.5 367.2,-152.1 54.4,-21.6 101.4,-43.2 127.7,-64.8 167.1,-137.1 107,-270.4 107,-270.4"
         style="fill:#ffb27d;fill-opacity:1;fill-rule:nonzero;stroke:none"
         id="path458" /><path
         d="m 11305.5,5385.1 c -28.3,-128.6 -356.3,27.5 -368.5,35 17.9,193.3 15.5,299.3 69.9,332.9 106.8,16.7 267.6,8.5 299.6,-3 261.9,-94.4 -1,-364.9 -1,-364.9"
         style="fill:#ffffff;fill-opacity:1;fill-rule:nonzero;stroke:none"
         id="path460" /><path
         d="m 10946.8,6136.2 c -11.2,-30.9 -39.4,-66.6 -101.4,-85.4 -15.9,31.9 -31,59.2 -43.2,77 -76,22.5 -71.3,101.4 -141.8,126.8 -83.5,29.1 -58.2,76 -58.2,76 0,0 60.1,25.4 133.4,17.8 26.2,-3.7 78.8,-79.8 109.8,-127.6 29.1,-21.6 63.9,-50.8 101.4,-84.6"
         style="fill:#ffa412;fill-opacity:1;fill-rule:nonzero;stroke:none"
         id="path462" /><path
         d="m 10772.6,6213.8 c -28.4,-21.9 -104.3,-98.8 -104.3,-98.8 l -175,226.2 c 0,0 89.5,56.5 119.4,79.4 27.1,20.8 106.8,95.6 106.8,95.6 l 175,-226.2 c 0,0 -93.4,-54.2 -121.9,-76.2"
         style="fill:#ffffff;fill-opacity:1;fill-rule:nonzero;stroke:none"
         id="path464" /><path
         d="m 10772.6,6213.8 c -28.4,-21.9 -104.3,-98.8 -104.3,-98.8 l -123.3,159.3 c 0,0 89.5,56.6 119.4,79.4 27.1,20.8 106.9,95.6 106.9,95.6 l 123.2,-159.3 c 0,0 -93.4,-54.2 -121.9,-76.2"
         style="fill:#ffffff;fill-opacity:1;fill-rule:nonzero;stroke:none"
         id="path466" /><path
         d="m 10894.5,6290 -175,226.2 18.1,14 175,-226.2 -18.1,-14"
         style="fill:#ffffff;fill-opacity:1;fill-rule:nonzero;stroke:none"
         id="path468" /><path
         d="m 10650.2,6101 -175,226.2 18.1,14 175,-226.2 -18.1,-14"
         style="fill:#ffffff;fill-opacity:1;fill-rule:nonzero;stroke:none"
         id="path470" /><g
         id="g472"><g
           id="g474"
           clip-path="url(#clipPath478)"><path
             d="m 9933.34,6074.6 h 541.461 v 514.098 H 9933.34 Z"
             style="fill:#f1b8a1;fill-opacity:1;fill-rule:nonzero;stroke:none"
             id="path480" /></g></g><path
         d="m 10095.7,6302.1 c -5.1,16.1 1.4,28.5 1.4,28.5 0,0 11.1,4.6 29.5,9.3 l -30.9,-37.8"
         style="fill:#f5d3bc;fill-opacity:1;fill-rule:nonzero;stroke:none"
         id="path482" /><path
         d="m 10141.9,5996.1 c -17.7,0 -35.5,5.8 -50.1,17.8 l -73.7,60.2 25.3,-20.7 c 0.1,-0.1 0.2,-0.2 0.3,-0.3 l 48.1,-39.2 c 14.6,-12 32.4,-17.8 50.1,-17.8 23.1,0 46,10 61.7,29.2 l 85.9,105.2 v 0 l -85.9,-105.2 c -15.7,-19.2 -38.6,-29.2 -61.7,-29.2"
         style="fill:#f3a17e;fill-opacity:1;fill-rule:nonzero;stroke:none"
         id="path484" /><path
         d="m 10141.9,5996.1 c -17.7,0 -35.5,5.8 -50.1,17.8 l -48.1,39.2 c 14.7,-11.8 32.3,-17.6 49.9,-17.6 23.1,0 46,10 61.7,29.2 l 84.9,104 c 12.2,-15.6 26.9,-29.5 49.3,-38.2 l -85.9,-105.2 c -15.7,-19.2 -38.6,-29.2 -61.7,-29.2 m 212.4,213.8 c -4.9,3.8 -9.6,7.4 -14,10.9 -7.5,11.8 -16.3,25.3 -25.7,39.1 l 74.1,90.8 c 39.7,48.6 44.1,114.9 16.6,167.4 -1.1,2.1 -1.6,4.4 -1.6,6.7 -1.1,-0.2 -2.3,-0.3 -3.4,-0.3 -1.6,0 -3.2,0.2 -4.8,0.7 -13.3,3.6 -27,5.4 -40.6,5.4 -44.3,0 -88.2,-19 -118.2,-55.8 l -110.1,-134.9 v 0 l 110.1,134.9 c 30,36.8 73.9,55.8 118.2,55.8 13.6,0 27.3,-1.8 40.6,-5.4 1.6,-0.5 3.2,-0.7 4.8,-0.7 1.1,0 2.3,0.1 3.4,0.3 4.6,0.9 8.7,3.6 11.3,7.7 1.2,1.9 2.4,3.8 3.9,5.5 l 12.3,15.1 43.6,-35.5 -12.4,-15.1 c -1.6,-2 -3.3,-3.8 -5.2,-5.5 -3.4,-3 -5.2,-7.3 -5.2,-11.7 0,-2.3 0.5,-4.5 1.6,-6.7 11.6,-22.1 17.5,-46.7 17.5,-71.4 0,-33.8 -11.2,-67.8 -34.1,-95.9 l -82.7,-101.4"
         style="fill:#efcabc;fill-opacity:1;fill-rule:nonzero;stroke:none"
         id="path486" /><path
         d="m 10289.5,6130.5 c -22.4,8.7 -37.1,22.6 -49.3,38.2 l 74.4,91.2 c 9.4,-13.8 18.2,-27.3 25.7,-39.1 4.4,-3.5 9.1,-7.1 14,-10.9 l -64.8,-79.4"
         style="fill:#f2ddcf;fill-opacity:1;fill-rule:nonzero;stroke:none"
         id="path488" /><path
         d="m 10043.7,6053.1 c -0.1,0.1 -0.2,0.2 -0.3,0.3 l -25.3,20.7 c -0.2,0.1 -0.5,0.3 -0.7,0.5 l 26.3,-21.5"
         style="fill:#f1baa3;fill-opacity:1;fill-rule:nonzero;stroke:none"
         id="path490" /><path
         d="m 10093.6,6035.5 c -17.6,0 -35.2,5.8 -49.9,17.6 l -26.3,21.5 c -19.83,16.5 -30.12,40.5 -30.12,64.7 -0.01,18.7 6.16,37.5 18.82,53 l 89.6,109.8 c 4.9,-15.1 20,-33.4 60.5,-47.5 45.4,-16.4 59.6,-54.5 84,-85.9 l -84.9,-104 c -15.7,-19.2 -38.6,-29.2 -61.7,-29.2 m 221,224.4 c -28.8,41.9 -63.7,85.7 -84.2,88.5 -9.3,1 -18.4,1.4 -27.3,1.4 -30.4,0 -57.4,-5 -76.5,-9.9 l 110.1,134.9 c 30,36.8 73.9,55.8 118.2,55.8 13.6,0 27.3,-1.8 40.6,-5.4 1.6,-0.5 3.2,-0.7 4.8,-0.7 1.1,0 2.3,0.1 3.4,0.3 0,-2.3 0.5,-4.6 1.6,-6.7 27.5,-52.5 23.1,-118.8 -16.6,-167.4 l -74.1,-90.8"
         style="fill:#eed6cf;fill-opacity:1;fill-rule:nonzero;stroke:none"
         id="path492" /><path
         d="m 10240.2,6168.7 c -24.4,31.4 -38.6,69.5 -84,85.9 -40.5,14.1 -55.6,32.4 -60.5,47.5 l 30.9,37.8 c 19.1,4.9 46.1,9.9 76.5,9.9 8.9,0 18,-0.4 27.3,-1.4 20.5,-2.8 55.4,-46.6 84.2,-88.5 l -74.4,-91.2"
         style="fill:#f0e4dc;fill-opacity:1;fill-rule:nonzero;stroke:none"
         id="path494" /><path
         d="m 10280,6118.9 -243.9,199 137,167.9 243.9,-199 -137,-167.9"
         style="fill:#ebf3fa;fill-opacity:1;fill-rule:nonzero;stroke:none"
         id="path496" /><path
         d="m 10499.3,6537.8 -97,78.9 -18.6,-23 97,-78.8 18.6,22.9"
         style="fill:#ebf3fa;fill-opacity:1;fill-rule:nonzero;stroke:none"
         id="path498" /><path
         d="m 10412.6,6163.5 c -16.9,-25.4 -47,-47.9 -98.6,-62.9 -5.7,10.3 -11.3,19.7 -16.9,27.2 -75.1,23.5 -70.4,101.4 -140.9,126.8 -83.5,29.1 -59.1,76 -59.1,76 0,0 61,25.4 133.3,17.8 27.2,-3.7 79.8,-79.8 109.9,-127.6 20.6,-16 46,-35.7 72.3,-57.3"
         style="fill:#ffa412;fill-opacity:1;fill-rule:nonzero;stroke:none"
         id="path500" /><path
         d="m 9188.2,6566.4 -16.91,-113.6 c 0,0 -7.51,0 -20.66,0.9 -41.3,2.8 -141.77,8.5 -255.38,20.7 -170.89,16.9 -373.7,46.9 -454.45,96.7 -123,75.1 -324.87,305.1 -456.32,535.2 -3.76,5.6 -6.57,11.2 -9.39,16.9 -68.54,122 -116.43,243.2 -120.18,339.9 -2.82,59.1 3.75,109.8 15.96,154 15.96,58.2 42.26,104.2 69.48,138.9 3.76,5.7 7.51,11.3 13.15,16 45.06,53.5 89.2,76 89.2,76 22.53,9.4 46.94,-1.9 72.29,-29.1 v -0.9 c 20.66,-21.6 43.19,-54.5 64.79,-95.8 0.94,-0.9 1.88,-1.9 1.88,-2.8 4.69,-8.4 9.39,-17.8 15.02,-28.2 1.87,-1.8 2.82,-4.7 3.75,-6.5 10.33,-21.6 20.66,-44.2 30.99,-67.6 115.49,-251.7 238.49,-632.9 340.84,-746.5 44.12,-48.8 246,-144.6 406.55,-216 115.49,-50.7 209.39,-88.2 209.39,-88.2"
         style="fill:#ffb27d;fill-opacity:1;fill-rule:nonzero;stroke:none"
         id="path502" /><path
         d="m 7660.83,9071.1 c 0,0 -34.92,181.5 -230.63,191.4 -195.73,9.8 -426.37,-146.2 -406.74,-350.4 19.63,-204.2 -201.19,-287.6 -240.45,-459.3 -39.26,-171.8 145.71,-172.2 185.44,-304.3 39.73,-132.1 -70.34,-251.5 168.49,-262.4 238.84,-10.9 513.2,30.4 568.63,164.3 55.43,133.9 86.31,675.6 86.31,675.6 l -131.05,345.1"
         style="fill:#2c3a64;fill-opacity:1;fill-rule:nonzero;stroke:none"
         id="path504" /><path
         d="m 7999.77,7217.6 c -11.34,-62.9 -30.06,-116.8 -52.6,-167.8 -18.79,-42.8 -40.19,-83.4 -62.24,-125.7 -64.57,-124.4 -207.9,-181.5 -221.8,-424.7 -4.75,-83.8 5.82,-189.7 40.26,-328 169.63,-681.7 -1170.39,-101 -1094.62,75.6 150.63,350.9 354.43,549.4 361.31,842.8 l -0.14,2.2 c -0.71,14.3 -1.2,52.4 -1.49,102.8 -0.71,123.3 -0.29,319.9 0.92,419.3 0,2.4 0.07,4.6 0.07,6.8 0.57,42.6 0.43,73.5 -0.92,81.6 109.95,399.9 328.2,393.5 402.63,389.4 27.58,-1.4 56.5,-4.3 80.25,-7.2 47.77,24.8 133.4,145.9 183.02,348.4 l 16.73,-7.8 281.42,-132.3 c 0,0 -29.92,-91.5 -51.96,-179.2 -17.23,-68.6 -29.56,-134.8 -19.21,-153.3 22.18,-9 35.44,-14.7 35.44,-14.7 l 0.07,-0.3 c 4.61,-11.5 160.56,-408.7 102.86,-727.9"
         style="fill:#ffb27d;fill-opacity:1;fill-rule:nonzero;stroke:none"
         id="path506" /><path
         d="m 7958.29,2457 -102.95,-53.7 c 0,0 -559.92,772.4 -626.36,1430 -11.78,117.4 -7.85,231.1 17.67,336.1 0,0 -11.19,64.9 -29.94,172.3 -3.73,21.4 -7.75,44.3 -11.97,68.9 -15.9,90.7 -35.43,202 -57.12,325.1 -21.4,121.3 -44.86,254.1 -69.1,389.7 -47.69,266.6 -97.94,544.4 -140.35,768.5 l 33.47,10.8 153.2,49.5 208.47,67.2 74.78,237.4 48.78,12.9 220.53,58 c 0,0 9.62,-18.9 24.54,-76.9 19.82,-76.6 48.97,-221.9 77.73,-482.9 3.83,-35.8 7.75,-73.6 11.68,-113.9 40.44,-295.4 63.89,-713.2 0.1,-1214.5 -12.37,-96.7 -27.97,-196.4 -47.21,-299 -14.23,-75.1 -16.29,-177.5 -10.4,-295.1 27.18,-537.5 224.45,-1390.4 224.45,-1390.4"
         style="fill:#35488b;fill-opacity:1;fill-rule:nonzero;stroke:none"
         id="path508" /><path
         d="m 7779.67,5769.9 c -143.88,-342.6 -455.88,-1078.5 -574.93,-1359.3 -15.9,90.7 -35.43,202 -57.12,325.1 -21.4,121.3 -44.86,254.1 -69.1,389.7 l -54.37,570.7 100.69,258.1 128.28,328.9 c 0,0 95.89,-4.8 203.75,-11.4 89.31,-5.5 186.97,-12.4 245.07,-18.9 19.82,-76.6 48.97,-221.9 77.73,-482.9"
         style="fill:#2c3a64;fill-opacity:1;fill-rule:nonzero;stroke:none"
         id="path510" /><path
         d="m 9417.8,6261.9 c -48.83,-43.2 -255.19,172.1 -273.03,191.8 -41.31,2.8 -141.78,8.5 -255.39,20.7 35.67,58.2 68.54,141.7 83.56,180.2 115.49,-50.7 209.39,-88.2 209.39,-88.2 0,0 176.41,-29.1 203.18,-58.5 74.24,-81.8 85.8,-200 32.29,-246"
         style="fill:#4caf50;fill-opacity:1;fill-rule:nonzero;stroke:none"
         id="path512" /><path
         d="m 9363.36,6421 c -35.2,0 -727.67,35.2 -727.67,35.2 L 9116.89,5943 10173.2,5718.1 9363.36,6421"
         style="fill:#699ff0;fill-opacity:1;fill-rule:nonzero;stroke:none"
         id="path514" /><path
         d="m 9842.4,5764.2 c -22.97,-70.2 -63.38,-288.5 -63.38,-288.5 l -558.67,182.8 c 0,0 86.95,199.4 111.37,272.8 22.17,66.7 71.47,285.9 71.47,285.9 l 558.67,-182.8 c 0,0 -96.49,-200 -119.46,-270.2"
         style="fill:#4caf50;fill-opacity:1;fill-rule:nonzero;stroke:none"
         id="path516" /><path
         d="m 9842.4,5764.2 c -22.97,-70.2 -63.38,-288.5 -63.38,-288.5 l -393.51,128.8 c 0,0 86.95,199.3 111.36,272.8 22.17,66.6 71.47,285.8 71.47,285.8 l 393.52,-128.7 c 0,0 -96.49,-200 -119.46,-270.2"
         style="fill:#3c8c40;fill-opacity:1;fill-rule:nonzero;stroke:none"
         id="path518" /><path
         d="m 9961.85,6034.4 -558.68,182.8 14.63,44.7 558.67,-182.8 -14.62,-44.7"
         style="fill:#3c8c40;fill-opacity:1;fill-rule:nonzero;stroke:none"
         id="path520" /><path
         d="m 9764.4,5431 -558.69,182.8 14.63,44.7 558.68,-182.8 -14.62,-44.7"
         style="fill:#dc8d39;fill-opacity:1;fill-rule:nonzero;stroke:none"
         id="path522" /><path
         d="m 9948.13,5921 201.67,-309.2 c 23.9,-36.6 13.5,-86.1 -23.1,-110 l -126.74,-82.6 c -38.7,-25.3 -91.05,-14.3 -116.28,24.4 L 9684.43,5749 c -33.91,52 -31.73,117.5 0.19,166.6 4.19,6.5 3.99,15 -1.08,20.9 -1.45,1.6 -2.81,3.4 -4.07,5.4 l -10.65,16.3 94.17,61.4 10.66,-16.3 c 1.4,-2.2 2.6,-4.4 3.63,-6.6 2.88,-6.4 9.55,-10.3 16.42,-9 58.38,10.2 120.17,-14.1 154.43,-66.7"
         style="fill:#ecf2fd;fill-opacity:1;fill-rule:nonzero;stroke:none"
         id="path524" /><path
         d="m 9948.13,5921 201.67,-309.2 c 23.9,-36.6 13.5,-86.1 -23.1,-110 l -79.7,-51.9 c -38.7,-25.3 -90.99,-14.3 -116.24,24.4 l -199.24,305.5 c -33.91,51.9 -31.74,117.5 0.19,166.5 1.53,2.4 2.48,5.1 2.81,7.8 0.56,4.6 -0.71,9.4 -3.9,13.1 -1.44,1.7 -2.81,3.5 -4.06,5.4 l -10.65,16.3 47.08,30.7 10.66,-16.3 c 1.4,-2.2 2.6,-4.4 3.63,-6.6 2.88,-6.4 9.55,-10.3 16.42,-9 58.38,10.2 120.17,-14.1 154.43,-66.7"
         style="fill:#e5eaf5;fill-opacity:1;fill-rule:nonzero;stroke:none"
         id="path526" /><path
         d="m 10001.4,5436.3 c -27.55,0 -54.58,13.4 -70.64,38 l -199.24,305.5 c -16.69,25.5 -24.64,54.4 -24.6,83 0.04,29.5 8.58,58.6 24.79,83.5 1.53,2.4 2.48,5.1 2.81,7.8 1.41,-0.5 2.91,-0.7 4.44,-0.7 0.83,0 1.67,0 2.52,0.2 8.76,1.5 17.61,2.3 26.43,2.3 49.89,0 98.88,-24.3 128.01,-69 l 201.68,-309.1 c 23.9,-36.7 13.5,-86.2 -23.1,-110 l -27.5,-17.9 c -14,-9.2 -29.9,-13.6 -45.6,-13.6"
         style="fill:#dee3f2;fill-opacity:1;fill-rule:nonzero;stroke:none"
         id="path528" /><path
         d="m 10083.8,5713.1 -263.68,-172.1 -118.4,181.5 263.69,172 118.39,-181.4"
         style="fill:#ebf3fa;fill-opacity:1;fill-rule:nonzero;stroke:none"
         id="path530" /><path
         d="m 9751.14,6049.2 -104.55,-68.5 16.21,-24.8 104.56,68.5 -16.22,24.8"
         style="fill:#ebf3fa;fill-opacity:1;fill-rule:nonzero;stroke:none"
         id="path532" /><path
         d="m 9253.08,6051.9 74.85,-361.5 c 8.85,-42.8 -18.92,-85.1 -61.72,-93.9 l -148.17,-30.7 c -45.25,-9.4 -89.95,20 -99.32,65.2 l -73.94,357.1 c -12.58,60.8 13.36,121 61.02,155 6.25,4.5 9.18,12.5 6.58,19.8 -0.72,2.1 -1.33,4.3 -1.81,6.5 l -3.95,19.1 110.11,22.8 3.95,-19.1 c 0.52,-2.5 0.83,-5 0.96,-7.5 0.37,-7 5.16,-13 12.01,-14.4 58.09,-11.7 106.71,-57 119.43,-118.4"
         style="fill:#ecf2fd;fill-opacity:1;fill-rule:nonzero;stroke:none"
         id="path534" /><path
         d="m 9253.08,6051.9 74.85,-361.5 c 8.85,-42.8 -18.92,-85.1 -61.72,-93.9 l -93.13,-19.3 c -45.24,-9.4 -89.94,20 -99.31,65.2 l -73.94,357.1 c -12.58,60.8 13.37,121 61.01,155 2.29,1.7 4.15,3.8 5.45,6.2 2.2,4.1 2.76,9 1.15,13.6 -0.73,2.1 -1.34,4.3 -1.81,6.5 l -3.95,19.1 55.05,11.4 3.95,-19.1 c 0.52,-2.5 0.83,-5 0.96,-7.5 0.37,-7 5.16,-13 12.01,-14.4 58.09,-11.7 106.71,-57 119.43,-118.4"
         style="fill:#e5eaf5;fill-opacity:1;fill-rule:nonzero;stroke:none"
         id="path536" /><path
         d="m 9172.72,5577.1 v 0 c 0.12,0 0.24,0 0.36,0.1 l 32.72,6.8 c -0.21,-0.1 -0.43,-0.1 -0.64,-0.2 l -32.08,-6.6 c -0.12,-0.1 -0.24,-0.1 -0.36,-0.1"
         style="fill:#e2eaf5;fill-opacity:1;fill-rule:nonzero;stroke:none"
         id="path538" /><path
         d="m 9156.14,5575.4 c -38.97,0 -74.18,27.5 -82.37,67 l -73.94,357.1 c -2.11,10.2 -3.14,20.4 -3.16,30.5 -0.09,49.8 24.53,96.2 64.17,124.5 2.29,1.7 4.15,3.8 5.45,6.2 1.77,-1.5 3.91,-2.5 6.3,-3 58.09,-11.8 106.71,-57 119.43,-118.4 l 74.85,-361.5 c 8.82,-42.6 -18.64,-84.7 -61.07,-93.8 l -32.72,-6.8 c -0.12,-0.1 -0.24,-0.1 -0.36,-0.1 -5.56,-1.1 -11.11,-1.7 -16.58,-1.7"
         style="fill:#dee3f2;fill-opacity:1;fill-rule:nonzero;stroke:none"
         id="path540" /><path
         d="m 9303.42,5808.8 -308.28,-63.9 -43.94,212.2 308.28,63.9 43.94,-212.2"
         style="fill:#3c8c40;fill-opacity:1;fill-rule:nonzero;stroke:none"
         id="path542" /><path
         d="m 9116.48,6243.1 -122.35,-25.6 6.06,-28.9 122.35,25.6 -6.06,28.9"
         style="fill:#3c8c40;fill-opacity:1;fill-rule:nonzero;stroke:none"
         id="path544" /><path
         d="m 10535.6,3667 -119.3,-758.7 -34.7,-218.8 -68.6,-438.5 h -927.63 c 0,0 -122.06,75.2 -280.74,173.8 -270.41,169.9 -644.11,406.5 -681.67,448.8 -24.41,27.2 -66.66,231.9 -107.97,462.9 -58.22,329.5 -114.56,714.5 -114.56,714.5 l 339.9,634.7 -292.95,701.4 386.84,1069.1 480.74,-513.3 1057.24,-224.4 363.4,-2051.5"
         style="fill:#aac9f5;fill-opacity:1;fill-rule:nonzero;stroke:none"
         id="path546" /><path
         d="m 9156.5,3806.6 -105.63,-598.5 792.23,551.6 z"
         style="fill:#aac9f5;fill-opacity:1;fill-rule:nonzero;stroke:none"
         id="path548" /><path
         d="M 10414.8,2908.3 10311.6,2251 h -927.7 c 0,0 -122.06,75.2 -280.74,173.8 l -76.99,226.2 891.98,404.7 107.05,5.6 389.6,-153"
         style="fill:#aac9f5;fill-opacity:1;fill-rule:nonzero;stroke:none"
         id="path550" /><path
         d="m 10535.6,3667 -119.3,-758.7 -34.7,-218.8 c -60.1,30.1 -478.88,246 -461.98,366.2 17.84,128.7 615.98,611.3 615.98,611.3"
         style="fill:#c3d9fa;fill-opacity:1;fill-rule:nonzero;stroke:none"
         id="path552" /><path
         d="m 8422.96,2873.6 c 0,0 563.36,-170.2 604.44,-223 41.08,-52.9 158.44,-275.8 158.44,-275.8 l -762.88,498.8"
         style="fill:#c3d9fa;fill-opacity:1;fill-rule:nonzero;stroke:none"
         id="path554" /><path
         d="m 9156.5,3806.6 c 0,0 446,129.1 487.07,187.8 41.08,58.7 328.63,416.7 328.63,416.7 0,0 -76.28,-581 -129.1,-651.4 -52.82,-70.4 -686.6,46.9 -686.6,46.9"
         style="fill:#c3d9fa;fill-opacity:1;fill-rule:nonzero;stroke:none"
         id="path556" /><path
         d="m 8791.03,4227.5 -476.04,-891 C 8256.77,3666 8200.43,4051 8200.43,4051 l 269.48,317.3 321.12,-140.8"
         style="fill:#9dc1ed;fill-opacity:1;fill-rule:nonzero;stroke:none"
         id="path558" /><path
         d="m 8791.03,4227.5 c 0,0 -258.21,101.4 -590.6,-176.5 l 339.9,634.7 250.7,-458.2"
         style="fill:#c3d9fa;fill-opacity:1;fill-rule:nonzero;stroke:none"
         id="path560" /><path
         d="M 8247.38,5387.1 9033.27,5181.8 9361.89,4681 Z"
         style="fill:#c3d9fa;fill-opacity:1;fill-rule:nonzero;stroke:none"
         id="path562" /><path
         d="m 9050.87,3208.1 -23.47,-557.5 892.22,405.1 615.98,611.3 -563.4,744.1 -269.94,-716 -651.39,-487"
         style="fill:#9dc1ed;fill-opacity:1;fill-rule:nonzero;stroke:none"
         id="path564" /><path
         d="m 8187.07,8869.7 c 0,0 -75.52,271.7 -294.05,297.9 -218.53,26.2 -355.93,-104.7 -385.38,-232.3 -29.44,-127.6 -8.16,-461.3 126.78,-502.2 134.95,-40.9 552.65,436.6 552.65,436.6"
         style="fill:#2c3a64;fill-opacity:1;fill-rule:nonzero;stroke:none"
         id="path566" /><path
         d="m 7559.81,6180.5 -13.54,116.1 c -226.83,-60.2 -832.91,168.4 -832.91,168.4 0,0 -219.74,-193.2 -190.89,-656.2 14.08,-226 23.22,-609.5 23.22,-609.5 h 0.03 c -0.57,-328.9 23.9,-654.6 43.42,-861 9.71,-103 18.22,-176.3 21.69,-205.6 l 0.07,-0.3 c 1.06,-8.9 -2.05,-17.4 -6.59,-25.2 -39.55,-67.1 -77.03,-135.4 -99.17,-208.5 -154.95,-511.8 -32.98,-1298.2 -32.98,-1298.2 l 152.57,-238 c 0,0 173.17,963 313.88,1388.5 23.89,72.1 46.78,128.8 67.76,162.7 61.18,98.8 117.96,260.1 169.49,452 96.84,360.7 383.95,1814.8 383.95,1814.8"
         style="fill:#35488b;fill-opacity:1;fill-rule:nonzero;stroke:none"
         id="path568" /><path
         d="m 7932.59,8293 c 0,0 -29.91,-91.5 -51.96,-179.2 -164.48,45.9 -214.43,218.8 -229.46,311.4 L 7932.59,8293"
         style="fill:#ed985f;fill-opacity:1;fill-rule:nonzero;stroke:none"
         id="path570" /><path
         d="m 7967.23,8196.1 c 0,0 -393.52,91.1 -333.03,335.3 60.49,244.1 50.43,420.4 304.24,372.5 253.81,-47.8 279.36,-153 278.99,-239.4 -0.36,-86.4 -146.28,-485.8 -250.2,-468.4"
         style="fill:#ffb27d;fill-opacity:1;fill-rule:nonzero;stroke:none"
         id="path572" /><path
         d="m 8239.56,8803.1 c -42.3,88.5 -92.09,83.8 -123.24,68.1 -184.9,171.1 -366.26,31.3 -366.26,31.3 -69.81,-168.6 -221.1,-237.5 -221.1,-237.5 0,0 60.45,-61.9 235.67,-60.6 53.52,0.4 107.33,25 156.29,58.9 -94.44,-95.2 -205.18,-153.1 -205.18,-153.1 219.33,42 366.41,295.9 381.48,322.9 18.58,-27.4 54.12,-85.8 57.11,-135.2 4.06,-67 -19,-197.2 19.39,-202.1 0,0 129.29,174.6 65.84,307.3"
         style="fill:#2c3a64;fill-opacity:1;fill-rule:nonzero;stroke:none"
         id="path574" /><path
         d="m 8123.46,7825.3 c 0,0 94.75,-165.3 108.93,-207.8 0,0 -122.87,4.7 -172.49,-89.8 0,0 4.26,273.8 63.56,297.6"
         style="fill:#4caf50;fill-opacity:1;fill-rule:nonzero;stroke:none"
         id="path576" /><path
         d="m 8090.69,7332.9 c -2.85,-7.7 -6.18,-15.4 -9.71,-23.1 -98.74,-212.7 -188.64,-390.2 -188.64,-390.2 -2.45,1.5 -14.33,-788 -133.77,-819.1 -67.43,-17.4 -259.79,-43.2 -397.49,-52.3 -66.93,-4.4 -250.27,-14.7 -418.29,0 -211.9,18.6 -332.42,66.6 -413.29,139.8 -95.89,127.7 348.32,548.6 408.67,851.5 -0.78,15.8 1.97,66.6 6.28,132.9 7.66,121 20.03,293.6 23.76,399.1 0.68,15.8 1.08,30.1 1.17,42.6 0,2.4 0.1,4.6 0.1,6.8 21.4,15.9 42.3,30.6 61.54,44.6 61.83,45.1 108.06,83.6 111,133 1.08,19.4 0.49,39.4 -1.57,59.4 -0.88,9.4 -2.06,18.9 -3.53,28.2 -15.22,99 -56.44,188.7 -56.44,188.7 104.53,42.4 290.71,17.2 290.71,17.2 0,0 -0.3,-10.4 -0.39,-27.3 -0.69,-68 0,-242.5 21.79,-275.5 27.28,-41.1 525.76,-221.4 552.06,-165.6 25.91,54.9 -45.05,312.1 -47.7,321.9 l -0.09,0.2 c 166.94,-65.4 226.61,-120.4 226.61,-120.4 -100.6,-65.3 45.05,-286.1 -32.78,-492.4"
         style="fill:#4caf50;fill-opacity:1;fill-rule:nonzero;stroke:none"
         id="path578" /><path
         d="m 7400.34,6567.1 c -130.93,60.7 -328.88,377.9 -455.89,605.3 7.66,121 20.03,293.6 23.76,399.1 l 432.13,-1004.4"
         style="fill:#3c8c40;fill-opacity:1;fill-rule:nonzero;stroke:none"
         id="path580" /><path
         d="m 8378.84,6381.4 -32.87,-120.2 c 0,0 -41.31,7.5 -107.04,19.8 -19.72,3.7 -30.98,6.5 -30.98,6.5 -52.58,10.3 -115.49,24.4 -184.03,39.5 h -0.94 c -117.37,28.1 -248.82,61.9 -359.62,99.5 -77.93,27.2 -145.53,56.3 -191.54,85.4 -4.69,2.9 -8.45,5.7 -13.14,9.4 -109.86,79.8 -240.37,314.6 -341.77,566.2 -14.09,34.7 -27.23,69.5 -40.38,103.3 -46.95,125.8 -84.5,249.7 -107.03,356.8 -14.09,63.8 -23.48,122 -25.36,169.9 -0.94,16.9 -1.88,32.9 -0.94,47.9 1.88,272.3 137.09,309.9 137.09,309.9 2.81,0.9 5.63,1.8 9.39,2.8 23.47,3.7 47.88,-12.2 73.24,-43.2 31.91,-38.5 65.72,-101.4 100.46,-177.5 53.51,-121.1 109.86,-277.9 162.44,-433.8 29.1,-85.4 57.27,-170.9 85.43,-249.7 15.97,-47.9 31.93,-93 46.95,-134.3 29.11,-78.9 55.4,-142.7 78.88,-183.1 15.01,-26.3 58.21,-62.9 115.48,-104.2 99.53,-72.3 245.06,-159.6 371.82,-231 52.58,-30 102.34,-57.3 143.66,-79.8 66.66,-36.6 110.8,-60.1 110.8,-60.1"
         style="fill:#ffb27d;fill-opacity:1;fill-rule:nonzero;stroke:none"
         id="path582" /><path
         d="m 7263.05,7857 c -180.76,49.9 -320.19,-91.3 -320.19,-91.3 2.27,271.9 137.59,309.1 137.59,309.1 54.44,22.5 117.53,-71.7 182.6,-217.8"
         style="fill:#4caf50;fill-opacity:1;fill-rule:nonzero;stroke:none"
         id="path584" /><path
         d="m 8773.42,6262.2 c -60.09,-25.3 -144.6,-113.6 -279.8,-60.1 -96.72,37.6 -199.05,63.9 -248.82,76.1 -19.72,3.7 -30.98,6.6 -30.98,6.6 -52.58,10.3 -115.49,24.4 -184.03,39.4 56.33,69.5 88.26,157.7 100.46,194.4 52.58,-30.1 102.34,-57.3 143.66,-79.9 136.09,-51.9 211.26,-45 293.88,-26.2 92.96,21.5 248.82,-90.2 248.82,-90.2 0,0 16.9,-35.7 -43.19,-60.1"
         style="fill:#4caf50;fill-opacity:1;fill-rule:nonzero;stroke:none"
         id="path586" /><path
         d="m 7040.26,2297.9 h -607.28 c 0,0 -22.7,96.9 17.17,162.8 35.29,58.3 20.27,125.4 13.1,205.1 27.51,-11.3 62.55,-40.2 101.22,-46.9 42.53,-7.4 84.69,5 112.75,21.3 26.14,-29.9 99.2,-183.9 134.17,-209 39.69,-28.5 216.65,-18.4 228.87,-133.3"
         style="fill:#233862;fill-opacity:1;fill-rule:nonzero;stroke:none"
         id="path588" /><path
         d="m 8265.15,2297.9 h -607.28 c 0,0 -22.7,96.9 17.16,162.8 35.3,58.3 20.28,125.4 13.11,205.1 27.51,-11.3 62.55,-40.2 101.22,-46.9 42.53,-7.4 97.5,20.7 125.56,37 13.77,-118 86.39,-199.6 121.36,-224.7 39.69,-28.5 216.65,-18.4 228.87,-133.3"
         style="fill:#233862;fill-opacity:1;fill-rule:nonzero;stroke:none"
         id="path590" /><path
         d="M 30418.9,2228.2 H 2503.65 c -17.08,0 -31.06,14 -31.06,31 v 9.2 c 0,17 13.98,31 31.06,31 H 30418.9 c 17.1,0 31,-14 31,-31 v -9.2 c 0,-17 -13.9,-31 -31,-31"
         style="fill:#2e3552;fill-opacity:1;fill-rule:nonzero;stroke:none"
         id="path592" /></g></g></svg>
